<?xml version="1.0" standalone="no"?>
<!DOCTYPE svg PUBLIC "-//W3C//DTD SVG 1.1//EN" "http://www.w3.org/Graphics/SVG/1.1/DTD/svg11.dtd" >
<svg xmlns="http://www.w3.org/2000/svg">
<metadata>Generated by IcoMoon</metadata>
<defs>
<font id="icomoon" horiz-adv-x="1024">
<font-face units-per-em="1024" ascent="960" descent="-64" />
<missing-glyph horiz-adv-x="1024" />
<glyph unicode="&#x20;" horiz-adv-x="512" d="" />
<glyph unicode="&#xe600;" glyph-name="faralong-logo" d="M173.224 483.805h-132.602v44.221h132.602l22.097-22.115-22.097-22.106zM84.817 395.373v-44.212h-44.195l-22.106 22.106 22.106 22.106h44.195zM40.622 461.699h88.399l22.097-22.106-22.097-22.115h-88.399v44.221zM991.625 373.267v37.929c0 8.597-4.803 11.889-9.988 11.889-6.696 0-12.891-6.197-12.891-18.086v-31.732h-14.408v37.929c0 8.597-4.927 11.889-10.111 11.889-6.573 0-12.772-6.197-12.772-18.086v-31.732h-14.408v56.769l13.783 5.040v-10.98c3.415 6.197 9.093 10.749 17.82 10.749 8.342 0 15.035-3.926 18.198-10.749 3.415 5.306 10.234 10.749 19.209 10.749 10.877 0 19.972-6.703 19.972-20.109v-41.469h-14.409zM874.829 371.623c-18.446 0-29.949 12.772-29.949 31.612s11.503 31.612 29.949 31.612c18.583 0 30.086-12.772 30.086-31.612s-11.503-31.612-30.086-31.612zM874.829 423.841c-10.363 0-15.292-9.232-15.292-20.606 0-11.383 4.927-20.615 15.292-20.615 10.62 0 15.42 9.232 15.42 20.615 0 11.374-4.803 20.606-15.42 20.606zM810.689 383.005c7.077 0 10.234 4.166 12.386 9.609l13.269-5.058c-4.803-8.854-11.88-15.934-25.398-15.934-18.077 0-29.58 12.514-29.58 31.612 0 18.84 11.374 31.612 29.829 31.612 13.903 0 20.983-7.208 24.9-16.569l-13.020-4.929c-1.646 6.446-5.811 10.243-12.515 10.243-9.988 0-14.408-9.737-14.408-20.357 0-10.372 4.176-20.229 14.537-20.229zM762.62 372.255c-5.565 0-9.484 3.788-9.484 9.103 0 5.306 3.919 9.103 9.484 9.103s9.484-3.798 9.484-9.103c0-5.315-3.919-9.103-9.484-9.103zM707.48 346.335c-14.28 0-22.749 5.563-26.795 15.42l13.149 4.809c2.028-5.315 5.688-9.232 14.151-9.232 12.643 0 16.303 9.489 16.303 20.109v5.94c-3.538-4.809-9.596-9.103-19.080-9.103-15.3 0-26.923 11.374-26.923 29.966 0 18.84 11.88 30.6 27.429 30.6 9.35 0 15.926-4.431 19.209-10.243v8.597h13.646v-55.509c0-20.357-9.854-31.355-31.089-31.355zM724.289 406.139c0 12.9-8.98 17.323-15.668 17.323-9.607 0-15.549-8.349-15.549-19.217 0-10.62 5.822-18.712 15.172-18.712 6.82 0 16.046 4.423 16.046 17.194v3.412zM651.936 411.196c0 8.597-5.565 11.889-11.117 11.889-7.21 0-13.912-6.197-13.912-18.086v-31.732h-14.4v56.769l13.775 5.040v-10.98c3.538 6.197 9.483 10.749 18.831 10.749 11.623 0 21.232-6.703 21.232-20.238v-41.34h-14.408v37.929zM570.275 371.621c-18.446 0-29.949 12.772-29.949 31.612s11.503 31.612 29.949 31.612c18.583 0 30.086-12.772 30.086-31.612s-11.503-31.612-30.086-31.612zM570.275 423.839c-10.363 0-15.292-9.232-15.292-20.606 0-11.383 4.927-20.615 15.292-20.615 10.62 0 15.421 9.232 15.421 20.615 0 11.374-4.804 20.606-15.421 20.606zM513.78 454.628l14.408 5.272v-86.632h-14.408v81.361zM483.882 382.113c-3.158-5.434-8.98-10.492-19.088-10.492-14.914 0-26.289 12.137-26.289 31.612s11.631 31.612 26.795 31.612c9.103 0 15.549-4.431 18.583-10.243v8.597h13.775v-59.932h-13.775v8.846zM483.376 406.010c0 12.643-8.599 17.452-15.172 17.452-9.226 0-14.914-8.725-14.914-20.229 0-11.632 5.565-20.229 14.537-20.229 6.82 0 15.549 4.801 15.549 17.443v5.563zM424.713 422.45c-6.953 0-14.537-6.069-14.537-18.969v-30.215h-14.408v56.864l13.526 4.945v-11.614c3.281 7.586 9.484 11.383 17.692 11.383 2.396 0 5.184-0.387 7.591-1.395l-2.911-13.278c-1.769 1.518-4.423 2.281-6.953 2.281zM365.852 382.113c-3.158-5.434-8.969-10.492-19.080-10.492-14.914 0-26.289 12.137-26.289 31.612s11.623 31.612 26.795 31.612c9.093 0 15.549-4.431 18.574-10.243v8.597h13.783v-59.932h-13.783v8.846zM365.355 406.010c0 12.643-8.599 17.452-15.172 17.452-9.226 0-14.914-8.725-14.914-20.229 0-11.632 5.565-20.229 14.537-20.229 6.82 0 15.549 4.801 15.549 17.443v5.563zM276.409 449.511v-24.532h32.726l-4.474-12.266h-28.252v-39.446h-14.794v88.51l60.944-0.009-4.474-12.257h-41.675z" />
<glyph unicode="&#xe601;" glyph-name="menu" d="M986.31 692.296h-946.855c-11.311 0-20.583 9.242-20.583 20.592v41.159c0 11.336 9.273 20.575 20.583 20.575h946.855c11.328 0 20.592-9.242 20.592-20.575v-41.159c0-11.344-9.263-20.592-20.592-20.592zM986.31 404.128h-946.855c-11.311 0-20.583 9.255-20.583 20.583v41.15c0 11.353 9.273 20.592 20.583 20.592h946.855c11.328 0 20.592-9.239 20.592-20.592v-41.15c0-11.328-9.263-20.583-20.592-20.583zM986.31 115.951h-946.855c-11.311 0-20.583 9.255-20.583 20.583v41.158c0 11.336 9.273 20.592 20.583 20.592h946.855c11.328 0 20.592-9.255 20.592-20.592v-41.158c0-11.328-9.263-20.583-20.592-20.583z" />
<glyph unicode="&#xe602;" glyph-name="search" d="M958.912-43.613l-272.672 272.672 43.719 43.719 272.672-272.68-43.719-43.711zM394.542 192.717c-204.999 0-371.759 166.76-371.759 371.751 0 204.982 166.76 371.759 371.759 371.759 204.965 0 371.726-166.777 371.726-371.759 0-204.991-166.76-371.751-371.726-371.751zM394.542 874.388c-170.907 0-309.945-139.005-309.945-309.92 0-170.898 139.038-309.937 309.945-309.937 170.873 0 309.92 139.038 309.92 309.937 0 170.915-139.047 309.92-309.92 309.92z" />
<glyph unicode="&#xe603;" glyph-name="facebook-logo" d="M990.132 769.893c0 83.578-75.468 159.163-159.112 159.163h-636.592c-83.661 0-159.196-75.585-159.196-159.163v-636.625c0-83.636 75.534-159.112 159.196-159.112h318.259v360.649h-116.688v159.179h116.688v62.065c0 106.897 80.309 203.243 179.045 203.243h128.686v-159.179h-128.686c-14.047 0-30.459-17.073-30.459-42.717v-63.411h159.145v-159.179h-159.145v-360.649h169.747c83.645 0 159.112 75.476 159.112 159.112v636.625z" />
<glyph unicode="&#xe604;" glyph-name="instagram-logo" d="M875.219 926.163h-723.975c-62.339 0-112.916-50.46-112.916-112.673v-724.534c0-62.205 50.577-112.607 112.916-112.607h723.975c62.397 0 112.916 50.402 112.916 112.607v724.534c0 62.214-50.518 112.673-112.916 112.673zM698.105 791.416c0 14.648 11.87 26.527 26.594 26.527h128.382c14.657 0 26.585-11.879 26.585-26.527v-128.081c0-14.648-11.929-26.527-26.585-26.527h-128.382c-14.723 0-26.594 11.879-26.594 26.527v128.081zM514.374 632.42c100.87 0 182.62-81.625 182.62-182.254 0-100.67-81.751-182.236-182.62-182.236-100.92 0-182.679 81.567-182.679 182.236 0 100.628 81.759 182.254 182.679 182.254zM881.893 113.321c0-14.656-11.937-26.527-26.585-26.527h-681.923c-14.648 0-26.585 11.87-26.585 26.527v413.031h88.858c-6.677-24.3-10.26-49.843-10.26-76.186 0-158.988 129.616-288.237 288.979-288.237 159.305 0 288.921 129.249 288.921 288.237 0 26.343-3.583 51.886-10.26 76.186h88.858v-413.031z" />
<glyph unicode="&#xe605;" glyph-name="twitter-logo" d="M1004.104 773.034c-36.234-16.602-75.127-27.896-115.953-32.909 41.687 25.903 73.701 67.083 88.674 115.996-39.037-24.072-82.2-41.484-128.133-50.921-36.851 40.724-89.231 66.164-147.343 66.164-111.404 0-201.809-93.908-201.809-209.624 0-16.441 1.762-32.479 5.297-47.713-167.752 8.71-316.403 92.236-415.923 219.069-17.345-30.934-27.313-66.906-27.313-105.344 0-72.705 35.669-136.885 89.831-174.403-33.019 1.094-64.155 10.516-91.434 26.25 0-0.945 0-1.671 0-2.613 0-101.495 69.565-186.278 161.886-205.497-16.889-4.75-34.808-7.323-53.132-7.323-13.066 0-25.701 1.388-38.032 3.829 25.676-83.247 100.246-143.908 188.464-145.604-69.134-56.238-155.994-89.771-250.687-89.771-16.281 0-32.267 1.062-48.118 2.897 89.223-59.487 195.309-94.22 309.381-94.22 371.164 0 574.104 319.374 574.104 596.394 0 9.126-0.152 18.122-0.558 27.085 39.467 29.635 73.676 66.485 100.66 108.56l0.143-0.295z" />
<glyph unicode="&#xe606;" glyph-name="youtube-logo" d="M784.36 223.653h-51.581l0.262 30.86c0 13.721 10.938 24.947 24.281 24.947h3.239c13.402 0 24.315-11.226 24.315-24.947l-0.514-30.86zM591.117 289.817c-13.064 0-23.775-9.109-23.775-20.166v-150.172c0-10.998 10.711-20.106 23.775-20.106 13.089 0 23.8 9.109 23.8 20.106v150.172c0 11.057-10.711 20.166-23.8 20.166zM904.829 373.826v-285.746c0-68.457-57.544-124.576-127.941-124.576h-526.161c-70.465 0-128.034 56.119-128.034 124.576v285.746c0 68.533 57.569 124.585 128.034 124.585h526.161c70.397 0 127.941-56.051 127.941-124.585zM285.787 57.102l-0.084 300.885h65.277v44.64l-173.864 0.295v-43.873l54.305-0.127v-301.821h54.365zM481.333 313.288h-54.398v-160.766c0-23.286 1.377-34.874-0.034-39.015-4.463-12.415-24.34-25.605-32.074-1.248-1.316 4.259-0.177 17.096-0.177 39.2l-0.195 161.828h-54.111l0.152-159.34c0.050-24.416-0.523-42.633 0.195-50.907 1.326-14.549 0.835-31.635 13.949-41.335 24.491-18.268 71.409 2.724 83.124 28.684l-0.143-33.17h43.712v256.067zM655.272 129.167l-0.143 133.735c0 50.975-36.923 81.606-87.13 40.33l0.287 99.443-54.398-0.109-0.228-343.222 44.657 0.649 4.099 21.457c57.080-54.095 92.991-17.146 92.857 47.719zM825.517 146.905l-40.837-0.228c0-1.66 0-3.552 0-5.688v-23.522c0-12.54-10.11-22.712-22.316-22.712h-8.045c-12.229 0-22.198 10.171-22.198 22.712v61.836h93.371v36.308c0 26.49-0.692 53.031-2.835 68.162-6.68 47.955-71.864 55.52-104.807 30.986-10.366-7.681-18.216-17.972-22.856-31.754-4.615-13.772-6.862-32.639-6.862-56.515v-79.708c0-132.672 155.958-113.933 137.387 0.118zM616.375 579.939c2.752-7.095 7.135-12.769 13.089-17.028 5.788-4.382 13.258-6.507 22.198-6.507 7.854 0 14.809 2.247 20.882 6.802 5.951 4.493 11.082 11.166 15.206 20.106l-1.033-22.062h60.64v266.181h-47.719v-207.169c0-11.234-8.967-20.343-19.904-20.343-10.855 0-19.904 9.109-19.904 20.343v207.169h-49.75v-179.497c0-22.881 0.371-38.129 1.063-45.821 0.717-7.692 2.46-15.080 5.231-22.173zM432.637 730.239c0 25.479 2.055 45.466 6.194 59.83 4.069 14.312 11.505 25.775 22.274 34.537 10.719 8.744 24.348 13.055 41.071 13.055 14.042 0 26.010-2.895 36.122-8.39 10.050-5.617 17.846-12.828 23.201-21.818 5.465-9.048 9.22-18.26 11.259-27.781 1.994-9.534 3.025-24.010 3.025-43.46v-67.352c-0.001-24.71-0.971-42.86-2.804-54.389-1.843-11.588-5.841-22.223-11.942-32.285-6.103-9.938-13.924-17.382-23.404-22.173-9.513-4.788-20.451-7.084-32.824-7.084-13.807 0-25.521 1.943-35.085 6.022-9.594 4.139-17.070 10.289-22.341 18.503-5.364 8.168-9.109 18.216-11.377 29.797-2.257 11.656-3.37 29.164-3.37 52.509v70.481zM480.102 624.521c0-15.139 10.905-27.384 24.053-27.384 13.258 0 24.087 12.246 24.087 27.384v141.663c0 15.021-10.829 27.258-24.087 27.258-13.149 0-24.053-12.237-24.053-27.258v-141.663zM312.303 552.975h57.207l0.059 203.981 67.563 174.891h-62.495l-35.921-129.83-36.468 130.184h-61.921l71.924-175.247 0.050-203.981z" />
<glyph unicode="&#xe607;" glyph-name="boat" d="M899.136 121.373c-32.145-31.602-68.59-67.384-140.060-67.384-71.495 0-107.931 35.799-140.086 67.384-29.104 28.586-54.251 53.282-105.603 53.282-51.311 0-76.423-24.687-105.502-53.273-32.145-31.594-68.556-67.392-140.009-67.392-71.461 0-107.889 35.799-140.026 67.384-29.113 28.595-54.233 53.282-105.561 53.282v49c71.461 0 107.889-35.799 140.026-67.384 29.104-28.595 54.233-53.29 105.561-53.29 51.32 0 76.431 24.695 105.51 53.29 32.145 31.585 68.556 67.384 140.001 67.384 71.487 0 107.923-35.799 140.077-67.384 29.104-28.586 54.251-53.29 105.612-53.29 51.353 0 76.49 24.695 105.595 53.29 32.155 31.585 68.59 67.384 140.077 67.384v-49c-51.353 0-76.499-24.695-105.612-53.282zM739.163 173.033l-41.949 25.502 122.568 200.58h-797.493v49h884.968l-168.094-275.082zM591.194 498.287l-192.348 194.803h-376.557v49.001h397.116l206.79-209.423-35-34.38zM22.289 301.123v49h663.159v-49h-663.159zM22.289 595.107v48.992h73.679v-48.992h-73.679zM169.655 595.107v48.992h73.687v-48.992h-73.687zM317.021 595.107v48.992h73.687v-48.992h-73.687zM95.968 497.115v48.992h73.687v-48.992h-73.687zM243.342 497.115v48.992h73.679v-48.992h-73.679zM390.708 497.115v48.992h73.687v-48.992h-73.687zM22.289 791.082v49.001h196.485v-49.001h-196.485z" />
<glyph unicode="&#xe608;" glyph-name="hiker" d="M635.080-38.743v238.163l-135.056 138.32 35.636 34.577 142.083-145.534 7.042-17.292v-248.233h-49.706zM498.841 725.308c-54.838 0-99.419 44.475-99.419 99.133s44.581 99.134 99.419 99.134c54.822 0 99.419-44.475 99.419-99.134s-44.597-99.133-99.419-99.133zM498.841 874.008c-27.411 0-49.714-22.238-49.714-49.567 0-27.338 22.303-49.567 49.714-49.567 27.395 0 49.706 22.229 49.706 49.567 0 27.329-22.31 49.567-49.706 49.567zM734.49-38.743v446.076h-149.125l-24.856 24.784v173.484h49.714v-148.7h124.267v74.35h49.714v-569.993h-49.714zM361.327-39.331l-48.196 12.077 165.804 657.629h-123.623l-59.66-198.259h66.019v-49.567h-99.419l-23.803 31.9 74.563 247.833 23.813 17.659h173.982l24.098-30.823-173.573-688.452z" />
<glyph unicode="&#xe609;" glyph-name="lion" d="M250.731 867.451v47.738h519.658v-47.738h-519.658zM477.76 3.309l-28.884-37.781-413.391 322.769 121.3 560.4 46.159-10.213-114.908-530.888 389.724-304.288zM572.244-34.472l-28.884 37.781 389.733 304.288-114.916 530.888 46.159 10.213 121.3-560.4-413.391-322.769zM392.456 433.056l-83.965 56.553 26.205 39.717 57.76-38.915 57.76 38.915 26.205-39.717-83.965-56.553zM628.665 433.056l-83.965 56.553 26.205 39.717 57.76-38.915 57.76 38.915 26.213-39.717-83.973-56.553zM371.254 744.786c-6.182 9.154-15.224 15.166-25.452 16.902-9.516 1.621-19.184-0.711-27.057-6.631-17.531-13.131-21.351-39.312-8.504-58.372l-39.030-26.866c-26.957 39.956-18.25 95.384 19.383 123.582 18.307 13.71 40.692 19.168 63.061 15.356 23.029-3.912 43.148-17.093 56.627-37.079l-39.030-26.892zM749.907 669.819l-39.022 26.866c12.842 19.060 9.030 45.241-8.504 58.372-7.889 5.921-17.581 8.253-27.065 6.631-10.228-1.736-19.267-7.748-25.452-16.902l-39.030 26.892c13.478 19.986 33.597 33.167 56.627 37.079 22.409 3.788 44.77-1.655 63.061-15.356 37.633-28.197 46.34-83.625 19.383-123.582zM756.495 561.765l-245.933 180.714-245.94-180.714-27.792 38.601 273.734 201.13 273.725-201.13-27.792-38.601zM602.499 144.165l-91.936 92.887-91.936-92.887-181.623 131.074 27.453 38.865 149.067-107.589 73.413 74.174v25.080l-60.34 40.651 26.197 39.7 57.769-38.906 57.76 38.906 26.205-39.7-60.348-40.651v-25.080l73.413-74.174 149.076 107.589 27.453-38.865-181.623-131.074zM463.321 79.882v47.729h94.483v-47.729h-94.483z" />
<glyph unicode="&#xe60a;" glyph-name="people" d="M680.746 617.078l-19.119-7.646h-121.442l-19.551-207.021-84.585-360.939-40.652 9.93 84.258 356.361 20.734 219.465 20.791 23.296h126.787l83.727 185.219 38.245-19.959-89.195-198.707zM605.089 41.529l-62.626 308.007 40.937 8.061 62.626-307.999-40.937-8.070zM380.744 609.432l-19.126 8.82-89.195 197.532 38.253 18.784 83.727-184.044h64.944v-41.093h-78.603zM521.182 682.258c-46.054 0-83.499 36.858-83.499 82.177s37.445 82.169 83.499 82.169c46.054 0 83.507-36.85 83.507-82.169s-37.453-82.177-83.507-82.177zM521.182 805.52c-23.011 0-41.745-18.441-41.745-41.084 0-22.651 18.735-41.093 41.745-41.093 23.019 0 41.754 18.441 41.754 41.093 0 22.643-18.735 41.084-41.754 41.084zM937.33 431.011l-18.547-6.462h-87.318l-13.023-91.626-63.687-293.719-40.815 9.294 63.443 289.133 15.414 105.775 20.652 22.227h92.614l61.051 111.887 37.11-18.816-66.894-127.692zM871.154 36.959l-36.532 210.44 41.142 6.903 36.539-210.448-41.15-6.895zM708.105 424.548l-18.082 6.773-64.275 106.183 36.164 22.88 58.269-94.751h31.424v-41.084h-43.5zM813.448 492.258c-37.413 0-67.848 29.946-67.848 66.763s30.436 66.763 67.848 66.763c37.405 0 67.841-29.946 67.841-66.763s-30.436-66.763-67.841-66.763zM813.448 584.7c-14.402 0-26.103-11.513-26.103-25.679s11.702-25.679 26.103-25.679c14.394 0 26.095 11.513 26.095 25.679s-11.702 25.679-26.095 25.679zM173.82 36.959l-41.142 6.895 36.532 210.448 41.142-6.903-36.531-210.44zM355.049 430.309l-18.18-5.761h-81.157l12.134-85.653 63.189-290.985-40.807-8.119-63.45 289.133-15.895 108.5 20.652 28.208h93.144l56.979 94.596 36.368-20.22-62.977-109.7zM231.534 492.258c-37.404 0-67.848 29.946-67.848 66.763s30.445 66.763 67.848 66.763c37.405 0 67.841-29.946 67.841-66.763s-30.436-66.763-67.841-66.763zM231.534 584.7c-14.394 0-26.094-11.513-26.094-25.679s11.701-25.679 26.094-25.679c14.394 0 26.095 11.513 26.095 25.679s-11.702 25.679-26.095 25.679zM124.543 424.548l-18.123 6.846-83.507 140.291 36.254 22.725 77.485-128.777h30.436v-41.084h-42.545z" />
<glyph unicode="&#xe60b;" glyph-name="feng-shui" d="M512.912 685.342c-65.82 0-119.349 54.064-119.349 120.519s53.529 120.528 119.349 120.528c65.828 0 119.349-54.072 119.349-120.528s-53.521-120.519-119.349-120.519zM512.912 866.124c-32.889 0-59.67-27.023-59.67-60.263 0-33.232 26.78-60.255 59.67-60.255 32.898 0 59.679 27.023 59.679 60.255 0 33.24-26.781 60.263-59.679 60.263zM821.107 170.894l-151.462 362.175c-9.35 22.377-30.943 36.825-54.982 36.825h-203.528c-24.040 0-45.632-14.448-54.982-36.8l-151.428-361.573-54.957 23.489 151.428 361.565c18.743 44.697 61.893 73.583 109.941 73.583h203.528c48.105 0 91.265-28.911 109.941-73.658l151.462-362.151-54.958-23.455zM765.397 13.826l-21.625-56.17-230.861 90.663-230.852-90.663-21.625 56.17 170.154 66.823-170.154 66.823 21.625 56.17 230.852-90.663 230.861 90.663 21.625-56.17-170.154-66.823 170.154-66.823zM483.081 208.322v301.31h59.67v-301.31h-59.67z" />
<glyph unicode="&#xe60c;" glyph-name="social" d="M604.386 552.991v52.688h369.119v-52.688h-369.119zM604.386-26.562v526.865h52.729v-474.186h263.661v474.186h52.729v-526.865h-369.119zM762.58 78.806v52.688h52.729v-52.688h-52.729zM604.386 658.368v210.745h-395.492v-263.433h263.661l18.636-44.968-131.83-131.716-37.28 37.248 86.822 86.748h-226.373l-26.372 26.348v316.113l26.372 26.348h448.221l26.365-26.348v-237.084h-52.729zM525.284 105.155h-200.008l86.822-86.756-37.28-37.248-131.83 131.716 18.636 44.968h237.296v158.065h-395.492v-184.405h-52.729v210.744l26.365 26.348h448.221l26.365-26.348v-210.744l-26.365-26.34zM261.623 763.736v52.688h290.026v-52.688h-290.026zM261.623 658.368v52.688h131.83v-52.688h-131.83zM156.157 210.523v52.688h237.296v-52.688h-237.296z" />
<glyph unicode="&#xe60d;" glyph-name="lock" d="M483.031 199.507v112.807h57.434v-112.807h-57.434zM138.454-26.114v56.403h746.589v-56.403h-746.589zM138.454 594.338v56.403h746.589v-56.403h-746.589zM138.454 86.693v451.241h57.426v-451.241h-57.426zM827.617 86.693v451.241h57.426v-451.241h-57.426zM511.747 284.117c-47.498 0-86.143 37.943-86.143 84.6s38.643 84.61 86.143 84.61c47.507 0 86.143-37.951 86.143-84.61s-38.635-84.6-86.143-84.6zM511.747 396.922c-15.83 0-28.717-12.639-28.717-28.205 0-15.558 12.887-28.197 28.717-28.197s28.717 12.639 28.717 28.197c0 15.566-12.887 28.205-28.717 28.205zM684.040 707.143c0 93.316-77.287 169.217-172.293 169.217s-172.293-75.903-172.293-169.217h-57.426c0 124.407 103.052 225.63 229.719 225.63s229.719-101.222 229.719-225.63h-57.426z" />
<glyph unicode="&#xe60e;" glyph-name="heart" d="M528.308-26.329h-46.15l-446.73 629.816 46.142 31.681 423.667-598.93 452.021 598.487 46.15-31.171-475.1-629.883zM420.143 682.781c0 93.846-76.342 170.181-170.189 170.181-93.838 0-170.181-76.334-170.181-170.181h-56.724c0 125.117 101.787 226.905 226.905 226.905 125.126 0 226.922-101.787 226.922-226.905h-56.732zM930.701 682.781c0 93.846-76.343 170.181-170.189 170.181s-170.181-76.334-170.181-170.181h-56.732c0 125.117 101.796 226.905 226.913 226.905s226.913-101.787 226.913-226.905h-56.724z" />
<glyph unicode="&#xe60f;" glyph-name="winner" d="M706.185 643.907l-23.265-14.804h-147.66l-23.783-243.652-102.843-428.684-49.429 11.235 102.451 427.060 25.227 261.049 25.268 22.388h154.151l101.802 226.895 46.531-19.777-108.45-241.707zM614.181-42.463l-76.156 370.311 49.78 9.7 76.148-370.32-49.772-9.692zM341.379 629.103l-23.258 14.804-108.458 241.707 46.531 19.777 101.802-226.895h78.003v-49.395h-94.621zM512.149 727.893c-55.985 0-101.531 44.308-101.531 98.807 0 54.483 45.546 98.79 101.531 98.79s101.531-44.308 101.531-98.79c0-54.5-45.546-98.807-101.531-98.807zM512.149 876.094c-27.993 0-50.766-22.175-50.766-49.395 0-27.237 22.773-49.412 50.766-49.412 28.001 0 50.766 22.175 50.766 49.412 0 27.222-22.765 49.395-50.766 49.395z" />
<glyph unicode="&#xe610;" glyph-name="calendar" d="M810.994 823.791v-54.856h-54.124v54.856h-487.1v-54.856h-54.124v54.856h-162.372v54.856h162.372v54.856h54.124v-54.856h487.1v54.856h54.124v-54.856h162.364v-54.856h-162.364zM53.274-26.504v795.44h54.124v-740.575h811.844v740.575h54.116v-795.44h-920.084zM378.010 522.071v54.856h108.248v-54.856h-108.248zM540.382 522.071v54.856h108.247v-54.856h-108.248zM702.746 522.071v54.856h108.248v-54.856h-108.248zM215.646 384.929v54.865h108.248v-54.865h-108.248zM378.010 384.929v54.865h108.248v-54.865h-108.248zM540.382 384.929v54.865h108.247v-54.865h-108.248zM702.746 384.929v54.865h108.248v-54.865h-108.248zM215.646 247.779v54.856h108.248v-54.856h-108.248zM378.010 247.779v54.856h108.248v-54.856h-108.248zM540.382 247.779v54.856h108.247v-54.856h-108.248zM702.746 247.779v54.856h108.248v-54.856h-108.248zM215.646 110.645v54.849h108.248v-54.849h-108.248zM378.010 110.645v54.849h108.248v-54.849h-108.248z" />
<glyph unicode="&#xe611;" glyph-name="clock" d="M521.074 392.125l-168.41 124.708 30.898 30.898 137.511-93.81 203.068 203.068 30.907-30.898-233.975-233.967zM512.407-26.717c-262.662 0-476.338 213.676-476.338 476.338 0 262.653 213.676 476.331 476.338 476.331 262.653 0 476.33-213.676 476.33-476.331 0-262.662-213.676-476.338-476.33-476.338zM512.407 878.318c-236.384 0-428.705-192.321-428.705-428.696 0-236.384 192.321-428.705 428.705-428.705 236.375 0 428.696 192.321 428.696 428.705 0 236.375-192.321 428.696-428.696 428.696zM488.586 711.604v119.081h47.633v-119.081h-47.633zM488.586 68.551v119.081h47.633v-119.081h-47.633zM131.336 425.8v47.633h119.081v-47.633h-119.081zM750.568 425.8v47.633h119.088v-47.633h-119.088z" />
<glyph unicode="&#xe612;" glyph-name="accommodation" d="M35.139 19.901v264.57h52.936v-264.57h-52.936zM141.020 178.638v52.921h741.162v-52.921h-741.162zM935.119 19.901v264.57h52.945v-264.57h-52.945zM849.299 285.269l-314.491 78.578h-155.561v52.912l165.229-0.791 317.644-79.385-12.821-51.316zM334.293 364.138c-5.919-27.505-22.231-51.058-45.881-66.338-17.087-11.007-36.834-16.845-57.106-16.845-35.979 0-69.12 18.038-88.61 48.244-31.512 48.792-17.425 114.123 31.407 145.626 17.063 11.039 36.81 16.861 57.082 16.861 35.979 0 69.12-18.038 88.61-48.227 15.272-23.634 20.416-51.8 14.498-79.32zM275.326 414.76c-9.717 15.038-26.231 24.013-44.139 24.013-10.063 0-19.885-2.902-28.359-8.386-24.327-15.691-31.334-48.211-15.668-72.515 15.175-23.424 48.8-30.843 72.555-15.603 11.765 7.604 19.885 19.328 22.828 33.012 2.951 13.684 0.387 27.714-7.216 39.479zM945.77 496.484l-434.177 315.596-434.162-315.596-31.125 42.785 465.287 338.23 465.302-338.23-31.125-42.785z" />
<glyph unicode="&#xe613;" glyph-name="biker" d="M395.719 140.867c-26.9-71.693-96.725-119.861-173.792-119.861-22.069 0-43.846 3.9-64.702 11.621-95.818 35.43-144.739 141.648-109.066 236.793 26.933 71.693 96.781 119.869 173.792 119.869 22.093 0 43.879-3.924 64.75-11.638 46.412-17.173 83.307-51.259 103.895-95.972 20.596-44.728 22.408-94.734 5.128-140.814zM342.429 259.815c-14.721 31.934-41.078 56.285-74.218 68.546-14.931 5.528-30.502 8.327-46.259 8.327-55.022 0-104.898-34.419-124.118-85.63-25.508-67.963 9.441-143.84 77.868-169.147 14.923-5.519 30.469-8.311 46.226-8.311 55.047 0 104.93 34.41 124.127 85.637 12.366 32.906 11.071 68.626-3.628 100.577zM975.646 146.662c-26.932-71.693-96.781-119.861-173.8-119.861-22.093 0-43.871 3.9-64.726 11.613-95.794 35.438-144.706 141.648-109.042 236.802 26.933 71.693 96.781 119.861 173.824 119.861 22.093 0 43.847-3.9 64.702-11.621 95.818-35.454 144.739-141.68 109.042-236.793zM848.104 334.17c-14.898 5.503-30.445 8.303-46.202 8.303-55.022 0-104.93-34.41-124.151-85.63-25.508-67.955 9.444-143.824 77.868-169.138 14.931-5.511 30.477-8.311 46.226-8.311 55.031 0 104.906 34.419 124.127 85.63 25.508 67.938-9.42 143.824-77.868 169.147zM538.055 130.508h-52.983v173.209l-169.907 168.693 177.676 176.398 37.454-37.194-140.215-139.204 147.976-146.916v-194.987zM659.544 446.109l-113.727 112.91 37.462 37.186 98.205-97.493h94.993v-52.603h-116.932zM604.771 652.062c-58.438 0-105.958 47.189-105.958 105.198s47.521 105.205 105.958 105.205c58.438 0 105.967-47.197 105.967-105.205s-47.529-105.198-105.967-105.198zM604.771 809.862c-29.207 0-52.975-23.59-52.975-52.603s23.768-52.603 52.975-52.603c29.207 0 52.983 23.59 52.983 52.603s-23.776 52.603-52.983 52.603z" />
<glyph unicode="&#xe614;" glyph-name="castle" d="M295.901 635.613v96.818h48.216v-96.818h-48.216zM392.325 635.613v96.818h48.216v-96.818h-48.216zM488.75 272.55v96.81h48.216v-96.81h-48.216zM633.39 829.258v-48.413h-96.425v-145.231h-48.216v290.463h144.641v-48.413h-96.425v-48.405h96.425zM585.174 635.613v96.818h48.216v-96.818h-48.216zM561.070-42.106v135.198l-48.209 48.413-48.216-48.413v-135.198h-48.216v155.241l96.431 96.827 96.425-96.827v-155.241h-48.216zM271.797-42.106v522.47l-96.425 96.818v155.249h48.209v-135.198l96.425-96.818v-542.522h-48.209zM753.918 480.364v-522.47h-48.207v542.522l96.425 96.818v135.198h48.216v-155.247l-96.431-96.818zM392.325 441.977v48.413h241.066v-48.413h-241.066zM681.607 635.613v96.818h48.209v-96.818h-48.209z" />
<glyph unicode="&#xe615;" glyph-name="tree" d="M682.082 687.363l-169.59 167.571-169.598-167.571-35.296 34.879 204.894 202.457 204.895-202.457-35.304-34.879zM286.729 483.838l-35.305 34.886 187.242 185.010 35.304-34.879-187.242-185.019zM230.554 280.322l-35.304 34.879 187.242 185.019 35.304-34.879-187.242-185.019zM437.591 57.241h-280.864l-17.504 42.257 190.36 185.019 35.017-35.173-146.882-142.763h219.872v-49.338zM738.257 483.838l-187.242 185.019 35.297 34.879 187.251-185.010-35.304-34.886zM794.431 280.322l-187.242 185.019 35.297 34.879 187.242-185.019-35.297-34.879zM868.258 57.241h-280.872v49.338h219.88l-146.882 142.763 35.010 35.173 190.369-185.019-17.504-42.255zM487.528-41.435v246.691h49.928v-246.691h-49.928z" />
<glyph unicode="&#xe616;" glyph-name="map-point" d="M806.535 574.266c0 176.044-131.851 301.798-293.929 301.798-162.086 0-293.929-125.753-293.929-301.798h-48.988c0 201.198 153.825 352.088 342.916 352.088 189.084 0 342.916-150.891 342.916-352.088h-48.989zM512.606 423.377c-94.534 0-171.463 78.969-171.463 176.044s76.928 176.044 171.463 176.044c94.525 0 171.454-78.969 171.454-176.044s-76.928-176.044-171.454-176.044zM512.606 725.165c-67.527 0-122.474-56.413-122.474-125.745s54.947-125.745 122.474-125.745c67.52 0 122.466 56.413 122.466 125.745s-54.947 125.745-122.466 125.745zM540.636-41.58h-42.718l-311.771 571.571 42.718 24.555 290.413-532.37 290.388 532.37 42.718-24.555-311.747-571.571z" />
<glyph unicode="&#xe617;" glyph-name="climber" d="M609.336 607.044l49.498-66.047h104.825v-46.626h-116.468l-18.63 9.319-69.88 93.261 3.888 32.034 256.23 209.823 29.483-36.086-238.945-195.675zM689.842 185.896l-45.311 10.79 40.194 169.057-100.045-33.38-14.74 44.24 139.762 46.626 30.030-27.512-49.889-209.822zM496.217 723.558c-51.391 0-93.173 41.837-93.173 93.253 0 51.423 41.783 93.261 93.173 93.261 51.383 0 93.173-41.837 93.173-93.261 0-51.414-41.79-93.253-93.173-93.253zM496.217 863.437c-25.688 0-46.588-20.908-46.588-46.626s20.9-46.626 46.588-46.626c25.68 0 46.588 20.908 46.588 46.626s-20.908 46.626-46.588 46.626zM738.996 4.524l-45.311 10.767 211.489 891.682 45.311-10.766-211.489-891.682zM232.593 124.897l-33.981 31.901 31.869 34.013 33.981-31.901-31.869-34.013zM168.854 56.854l-33.981 31.901 31.869 34.029 33.981-31.901-31.869-34.029zM105.139-11.172l-33.981 31.893 31.869 34.021 33.981-31.901-31.869-34.013zM296.307 192.93l-33.981 31.892 31.869 34.013 33.981-31.893-31.869-34.013zM423.76 328.999l-33.981 31.892 30.774 32.855 33.99-31.901-30.782-32.847zM360.046 260.966l-33.981 31.878 31.846 34.029 33.981-31.878-31.846-34.029zM484.135 4.775v629.474h-122.43l-55.906-186.512h61.868v-46.626h-93.173l-22.315 30.007 69.88 233.139 22.315 16.627h163.054l23.294-23.318v-652.791h-46.588z" />
<glyph unicode="&#xe618;" glyph-name="paddler" d="M396.961 619.59c-6.732-1.436-13.599-2.162-20.419-2.162-45.163 0-84.843 31.823-94.369 75.669-5.43 25.020-0.709 50.649 13.266 72.154 14.001 21.505 35.614 36.323 60.817 41.707 6.732 1.436 13.599 2.162 20.428 2.162 45.156 0 84.843-31.823 94.361-75.669 11.212-51.667-22.031-102.733-74.082-113.861zM423.616 723.317c-4.738 21.822-24.477 37.667-46.934 37.667-3.386 0-6.833-0.367-10.194-1.085-12.555-2.68-23.308-10.052-30.279-20.755-6.963-10.702-9.307-23.467-6.601-35.923 4.738-21.822 24.469-37.659 46.934-37.659 3.416 0 6.822 0.359 10.185 1.077 25.921 5.535 42.476 30.964 36.891 56.676zM622.062 517.374c68.022 0 121.3-76.044 121.3-170.514 0-52.227-16.68-102.517-45.749-134.432l-36.014 32.266c20.829 22.849 33.243 60.275 33.243 100.129 0 54.113-22.933 101.273-53.278 115.766-17.699-51.517-82.781-87.623-165.070-87.623h-97.458l-152.99-183.394-37.391 30.696 127.394 152.698h-288.833v48.136h328.988l80.311 96.273h-118.403l-63.421-64.883-34.829 33.494 77.689 79.517h179.121l148.682 178.227 37.391-30.688-243.544-291.938h57.294c66.886 0 132.988 30.563 132.988 68.13v28.142h12.58zM893.365 124.171c-31.774-31.022-67.764-66.202-138.389-66.202-70.601 0-106.591 35.179-138.364 66.202-28.734 28.084-53.571 52.352-104.295 52.352-50.674 0-75.51-24.252-104.22-52.352-31.749-31.022-67.713-66.202-138.289-66.202-70.601 0-106.599 35.179-138.339 66.202-28.743 28.1-53.545 52.352-104.253 52.352v48.136c70.584 0 106.573-35.171 138.323-66.194 28.734-28.092 53.563-52.36 104.269-52.36 50.674 0 75.502 24.26 104.22 52.36 31.749 31.022 67.713 66.194 138.289 66.194 70.601 0 106.591-35.171 138.364-66.194 28.734-28.092 53.571-52.36 104.295-52.36 50.749 0 75.577 24.268 104.337 52.369 31.749 31.022 67.738 66.185 138.339 66.185v-48.136c-50.724 0-75.552-24.252-104.286-52.352z" />
<glyph unicode="&#xe619;" glyph-name="desert" d="M827.854 121.659v509.982h48.568v-509.982h-48.568zM730.72 291.65l-24.288 24.288v194.279h48.568v-169.991h24.288v-48.576h-48.568zM973.566 218.803h-48.576v48.568h24.288v169.991h48.568v-194.279l-24.279-24.28zM26.459 24.523v48.568h971.387v-48.568h-971.387zM319.137 198.614c-82.036 35.363-159.489 68.757-292.678 68.757v48.568c143.2 0 228.953-36.977 311.911-72.714 29.477-12.705 59.377-25.543 92.296-36.852-44.202 36.303-82.526 80.198-120.234 123.56-80.654 92.711-156.829 180.285-283.972 180.285v48.568c149.245 0 236.378-100.137 320.608-196.982 85.686-98.516 166.657-191.577 310.796-191.577v-48.568c-160.221 0-250.979 39.13-338.726 76.955zM512.153 510.217c-93.718 0-169.991 76.256-169.991 169.991s76.274 169.991 169.991 169.991c93.726 0 169.999-76.256 169.999-169.991s-76.274-169.991-169.999-169.991zM512.153 801.631c-66.944 0-121.423-54.479-121.423-121.423 0-66.952 54.479-121.423 121.423-121.423 66.952 0 121.423 54.471 121.423 121.423 0 66.944-54.471 121.423-121.423 121.423z" />
<glyph unicode="&#xe61a;" glyph-name="teepee" d="M678.458 25.473l-165.939 234.563-165.939-234.563-40.38 23.469 186.129 257.462h40.38l186.12-257.462-40.372-23.469zM585.902 736.489l-35.093 35.439 93.060 93.969 35.093-35.439-93.060-93.969zM439.137 736.489l-93.068 93.969 35.093 35.439 93.068-93.969-35.093-35.439zM957.646 24.664l-445.127 629.248-445.127-629.248-40.38 27.013 465.317 655.675h40.38l465.317-655.675-40.38-27.013z" />
<glyph unicode="&#xe61b;" glyph-name="mountains" d="M619.422 468.196l-284.253 286.289-194.149-194.87h140.563v-47.588h-254.977l308.639 309.756 317.666-319.959-33.487-33.629zM965.487 414.097l-136.781 137.55-310.5-311.212-118.304 118.957-250.508-251.907h652.809v-47.595h-767.059l364.758 366.802 118.345-119.007 310.5 311.212 170.203-171.155-33.463-33.644z" />
<glyph unicode="&#xe61c;" glyph-name="asia" d="M238.148 23.442v599.743h45.834v-599.743h-45.834zM123.571 23.442v484.405h45.834v-484.405h-45.834zM856.867 23.442v415.209h45.826v-415.209h-45.826zM382.358 560.746l-121.294 122.087-121.294-122.087-32.401 32.612 153.695 154.714 153.695-154.714-32.401-32.612zM261.065 760.874l-188.871 47.533 11.094 44.758 154.86-38.963v39.652h45.834v-39.652l154.86 38.963 11.094-44.758-188.871-47.533zM66.618 649.542l-23.589 39.555 114.585 69.204 23.58-39.555-114.577-69.204zM455.512 649.542l-114.577 69.204 23.58 39.555 114.577-69.204-23.58-39.555zM742.29 23.442v530.539h45.834v-530.539h-45.834zM765.207 691.678l-188.879 47.533 11.102 44.758 154.86-38.972v108.856h45.834v-108.856l154.852 38.972 11.102-44.758-188.871-47.533zM570.76 580.337l-23.589 39.563 114.577 69.196 23.589-39.554-114.577-69.204zM959.654 580.337l-114.577 69.204 23.58 39.555 114.577-69.196-23.58-39.563zM490.219 23.442v230.667h45.834v-230.667h-45.834zM352.725 23.442v161.471h45.834v-161.471h-45.834zM627.713 23.442v161.471h45.834v-161.471h-45.834zM600.054 226.273l-86.918 87.493-86.918-87.493-32.401 32.611 119.319 120.12 119.319-120.12-32.401-32.611zM886.493 491.542l-122.831 123.632-252.071-207.588-106.315 107.027 32.401 32.611 52.542-52.882v59.639h45.834v-66.655l230.7 190.004 152.149-153.169-32.409-32.62zM329.808 369.447v46.134h137.494v-46.134h-137.494zM558.962 369.447v46.134h137.494v-46.134h-137.494z" />
<glyph unicode="&#xe61d;" glyph-name="envelope" d="M987.433 115.888l-950.721 1.231-1.126 632.729 952.018 1.94-0.171-635.902zM386.158 456.005l-283.609 182.047 0.465-417.997 283.145 235.952zM133.057 171.645l780.418 0.954-301.738 251.446-88.915-57.412-86.877 57.412-302.888-252.4zM932.281 230.37l0.783 399.934-271.541-174.298 270.757-225.635zM110.998 694.713l412.843-265 409.337 262.757 0.008 2.243h-822.189z" />
<glyph unicode="&#xe61e;" glyph-name="envelope-circle" d="M512.588-26.718c-262.845 0-475.92 213.075-475.92 475.92 0 262.837 213.075 475.912 475.92 475.912 262.837 0 475.92-213.075 475.92-475.912 0-262.845-213.083-475.92-475.92-475.92zM513.064 867.601c-231.152 0-418.545-187.384-418.545-418.545 0-231.152 187.392-418.545 418.545-418.545 231.16 0 418.545 187.392 418.545 418.545 0 231.16-187.384 418.545-418.545 418.545zM237.442 260.569l-0.668 372.384 560.299 1.135-0.105-374.245-559.526 0.725zM764.969 562.591l-159.808-102.578 159.349-132.788 0.459 235.366zM753.441 293.22l-177.58 147.981-52.332-33.787-51.133 33.787-178.257-148.546 459.3 0.564zM276.457 321.15l166.64 138.863-166.914 107.138 0.274-246zM281.155 600.502l242.971-155.966 240.917 154.644v1.321h-483.888z" />
<glyph unicode="&#xe61f;" glyph-name="facebook-logo-circle" d="M511.788-26.682c-262.973 0-476.156 213.184-476.156 476.164 0 262.973 213.184 476.156 476.156 476.156 262.981 0 476.164-213.184 476.164-476.156 0-262.981-213.184-476.164-476.164-476.164zM512.265 868.095c-231.267 0-418.759-187.484-418.759-418.759 0-231.267 187.492-418.759 418.759-418.759 231.275 0 418.759 187.492 418.759 418.759 0 231.275-187.484 418.759-418.759 418.759zM639.348 227.573h-78.88v167.588h73.95v73.959h-73.95v29.464c0 11.923 7.625 19.855 14.15 19.855h59.802v73.967h-59.802c-45.871 0-83.194-44.771-83.194-94.446v-28.841h-54.225v-73.959h54.225v-167.588h-147.885c-38.878 0-73.975 35.074-73.975 73.935v295.819c0 38.837 35.097 73.967 73.975 73.967h295.812c38.861 0 73.935-35.13 73.935-73.967v-295.819c0-38.861-35.074-73.935-73.935-73.935z" />
<glyph unicode="&#xe620;" glyph-name="twitter-logo-circle" d="M511.99-25.709c-262.51 0-475.319 212.809-475.319 475.319s212.809 475.319 475.319 475.319c262.51 0 475.319-212.809 475.319-475.319s-212.809-475.319-475.319-475.319zM512.473 867.491c-230.871 0-418.025-187.155-418.025-418.018 0-230.871 187.155-418.025 418.025-418.025 230.863 0 418.018 187.155 418.018 418.025 0 230.863-187.155 418.018-418.018 418.018zM729.259 553.593c0.209-4.74 0.29-9.497 0.29-14.317 0-146.429-107.268-315.241-303.454-315.241-60.291 0-116.371 18.359-163.534 49.805 8.378-0.972 16.832-1.534 25.437-1.534 50.054 0 95.964 17.724 132.505 47.451-46.624 0.9-86.049 32.966-99.612 76.962 6.517-1.286 13.192-2.017 20.095-2.017 9.689 0 19.162 1.349 28.088 3.864-48.802 10.163-85.567 54.972-85.567 108.618 0 0.507 0 0.883 0 1.39 14.422-8.323 30.876-13.297 48.327-13.875-28.627 19.829-47.476 53.75-47.476 92.179 0 20.32 5.263 39.328 14.43 55.687 52.601-67.047 131.178-111.189 219.847-115.793-1.861 8.050-2.796 16.527-2.796 25.213 0 61.167 47.789 110.804 106.674 110.804 30.716 0 58.402-13.441 77.879-34.974 24.28 4.99 47.098 14.197 67.73 26.923-7.924-25.855-24.844-47.62-46.873-61.319 21.476 2.644 41.931 8.589 61.014 17.298-14.237-22.127-32.225-41.53-53.003-57.125zM782.463 610.967l0.080-0.153c-0.097-0.040-0.193-0.056-0.281-0.097 0.056 0.088 0.137 0.161 0.201 0.249z" />
<glyph unicode="&#xe621;" glyph-name="instagram-logo-circle" d="M511.923-26.892c-263.139 0-476.453 213.314-476.453 476.445s213.314 476.445 476.453 476.445c263.131 0 476.445-213.314 476.445-476.445s-213.314-476.445-476.445-476.445zM512.396 868.423c-231.413 0-419.007-187.602-419.007-419.007 0-231.413 187.594-419.015 419.007-419.015s419.007 187.602 419.007 419.015c0 231.405-187.594 419.007-419.007 419.007zM689.254 228.7h-338.387c-29.141 0-52.78 23.56-52.78 52.627v338.66c0 29.076 23.639 52.668 52.78 52.668h338.387c29.173 0 52.78-23.592 52.78-52.668v-338.66c0-29.068-23.607-52.627-52.78-52.627zM520.595 535.352c-47.175 0-85.382-38.15-85.382-85.189 0-47.055 38.207-85.172 85.382-85.172 47.143 0 85.358 38.117 85.358 85.172 0 47.039-38.214 85.189-85.358 85.189zM691.334 609.668c0 6.85-5.573 12.398-12.422 12.398h-60.007c-6.882 0-12.43-5.549-12.43-12.398v-59.871c0-6.841 5.549-12.398 12.43-12.398h60.007c6.85 0 12.422 5.557 12.422 12.398v59.871zM692.377 485.776h-41.538c3.124-11.355 4.802-23.295 4.802-35.612 0-74.309-60.586-134.725-135.047-134.725-74.485 0-135.071 60.417-135.071 134.725 0 12.318 1.67 24.258 4.793 35.612h-41.53v-193.054c0-6.85 5.581-12.398 12.422-12.398h318.738c6.85 0 12.43 5.549 12.43 12.398v193.054z" />
<glyph unicode="&#xe622;" glyph-name="laptop" d="M179.425 810.394h666.299v-45.964h-666.299v45.964zM661.38 185.036v50.753h55.618v-50.753h-55.618zM547.951 185.036v50.753h55.617v-50.753h-55.617zM434.523 185.036v50.753h55.617v-50.753h-55.617zM321.127 185.036v50.753h38.764v-50.753h-38.764zM845.548 718.147l0.218-393.493h-665.646l-0.268 393.493h47.748v-348.124h569.807v348.124h48.141zM213.768 237.506l-113.295-114.023h823.164l-113.295 114.023 31.195 33.414 162.324-163.353-20.713-22.178v-16.125h-944.354v18.444l-18.544 19.859 162.315 163.353 31.204-33.414z" />
<glyph unicode="&#xe623;" glyph-name="tablet" d="M233.944 829.283h553.146v-58.127h-553.146v58.127zM549.111 228.694v-60.004h-61.013v60.004h61.013zM292.797 114.687h439.747v603.37h57.634l-0.467-662.894-556.133 0.325v662.007h59.219v-602.808z" />
<glyph unicode="&#xe624;" glyph-name="mobile" d="M733.191 53.116v-0.302l-441.595 0.302v621.133h60.566v-567.408h320.456v567.408h60.574v-621.133zM486.153 165.004v72.157h53.773v-72.157h-53.773zM289.104 803.544h442.726v-65.791h-442.726v65.791z" />
<glyph unicode="&#xe625;" glyph-name="facebook-logo-letter" d="M387.43 737.687c0-24.31 0-133.021 0-133.021h-95.773v-162.812h95.773v-483.729h196.741v483.729h131.953c0 0 12.378 78.074 18.348 163.346-17.147 0-149.57 0-149.57 0s0 94.721 0 111.3c0 16.702 21.436 39.010 42.65 39.010 21.151 0 65.803 0 107.18 0 0 22.183 0 98.788 0 169.485-55.25 0-118.018 0-145.745 0-206.449 0-201.555-162.99-201.555-187.31z" />
<glyph unicode="&#xe626;" glyph-name="google-plus-logo" d="M597.34 882.36c0 0-76.806 0-76.806 1.739 171.073-171.074 36.659-314.227-13.965-343.903-50.625-29.669-38.408-69.825-38.408-80.294 0-10.478 20.947-38.407 78.555-75.067s89.031-87.285 96.015-123.945c5.875-30.869 33.164-157.109-139.658-246.142s-498.833-27.93-448.2 169.334c50.625 197.257 327.749 183.291 329.498 183.291-54.12 43.642-29.679 132.674-27.938 130.927-174.569-31.418-254.871 102.997-242.646 212.977 38.398 212.977 263.594 218.212 263.594 218.212h286.297l-66.337-47.13zM164.412 159.64c34.912-113.467 146.641-123.945 202.499-123.945s164.092 3.495 192.022 108.232c27.938 104.745-132.666 188.534-132.666 188.534-143.151 6.983-296.766-59.355-261.854-172.821zM489.107 716.513c-32.29 150.126-130.347 164.966-130.347 164.966-71.85 13.099-100.082-25.308-117.541-53.238-17.452-27.93-29.679-137.909 24.443-223.447 54.111-85.537 129.179-69.833 139.658-68.085 10.468 1.75 117.558 22.826 83.789 179.804zM677.013 445.79v61.127h296.872v-61.127h-296.872zM794.882 306.084v318.709h61.127v-318.709h-61.127z" />
<glyph unicode="&#xe627;" glyph-name="medal" d="M765.314 536.825c-0.465 0-0.906 0.057-1.364 0.066v43.16c0.539-0.033 1.070-0.081 1.608-0.081 14.259 0 25.809 11.557 25.809 25.809 0 14.259-11.548 25.807-25.809 25.807-0.539 0-1.069-0.049-1.608-0.081v43.894c0.457 0.009 0.898 0.066 1.364 0.066 38.279 0 69.319-31.032 69.319-69.319s-31.039-69.319-69.319-69.319zM741.815 378.396c-26.722-27.416-70.607-27.971-98.024-1.249-0.334 0.318-0.604 0.669-0.93 0.996l30.641 31.431c0.359-0.399 0.71-0.799 1.095-1.185 10.211-9.95 26.551-9.737 36.501 0.466 9.95 10.211 9.738 26.551-0.473 36.501-0.384 0.375-0.799 0.71-1.208 1.061l30.134 30.909c0.326-0.31 0.685-0.579 1.020-0.898 27.416-26.722 27.971-70.617 1.249-98.033zM740.566 733.511c-0.335-0.318-0.694-0.587-1.020-0.898l-30.134 30.909c0.408 0.343 0.824 0.686 1.208 1.062 10.211 9.95 10.423 26.29 0.473 36.501-9.949 10.202-26.289 10.414-36.5 0.465-0.384-0.384-0.735-0.785-1.095-1.184l-30.641 31.431c0.326 0.326 0.596 0.677 0.93 0.996 27.416 26.722 71.303 26.167 98.024-1.249s26.167-71.31-1.249-98.033zM538.887 854.861c0.033 0.53 0.074 1.061 0.074 1.608 0 14.25-11.548 25.807-25.807 25.807-14.25 0-25.809-11.557-25.809-25.807 0-0.547 0.047-1.077 0.081-1.608h-43.16c-0.009 0.449-0.066 0.898-0.066 1.354 0 38.287 31.032 69.319 69.319 69.319s69.327-31.032 69.327-69.319c0-0.457-0.066-0.906-0.074-1.354h-43.886zM352.878 801.548c-10.203 9.95-26.542 9.737-36.492-0.466-9.949-10.211-9.745-26.551 0.465-36.501 0.384-0.376 0.799-0.718 1.205-1.062l-30.125-30.909c-0.335 0.31-0.694 0.579-1.018 0.898-27.416 26.722-27.978 70.617-1.254 98.033 26.722 27.416 70.617 27.971 98.033 1.249 0.326-0.318 0.605-0.669 0.922-0.996l-30.641-31.431c-0.359 0.399-0.702 0.799-1.097 1.184zM286.57 476.428c0.326 0.318 0.686 0.587 1.018 0.898l30.126-30.909c-0.399-0.351-0.817-0.686-1.205-1.061-10.202-9.95-10.414-26.29-0.466-36.501 9.949-10.202 26.29-10.414 36.501-0.466 0.384 0.384 0.735 0.785 1.097 1.185l30.631-31.431c-0.318-0.326-0.596-0.677-0.922-0.996-27.416-26.722-71.303-26.167-98.024 1.249-26.731 27.416-26.168 71.31 1.244 98.033zM186.546 606.144c0 38.287 31.039 69.319 69.319 69.319 0.457 0 0.906-0.057 1.362-0.066v-43.894c-0.539 0.033-1.067 0.081-1.606 0.081-14.259 0-25.807-11.548-25.807-25.807 0-14.25 11.549-25.807 25.807-25.807 0.539 0 1.067 0.047 1.606 0.081v-43.16c-0.457-0.009-0.906-0.066-1.362-0.066-38.279 0-69.319 31.032-69.319 69.319zM450.305 358.783l37.798-19.686-121.4-241.657 50.489-75.236 51.46 205.279 41.144-8.847-62.325-254.283-38.735-5.869-85.43 125.513 0.457 24.837 126.541 249.949zM296.143 602.651c0 118.739 96.261 215.001 215 215.001 118.747 0 215.008-96.262 215.008-215.001 0-118.747-96.262-215.008-215.008-215.008-118.739 0-215.001 96.262-215.001 215.008zM509.886 430.566c94.727 0 171.514 76.796 171.514 171.514 0 94.727-76.787 171.513-171.514 171.513s-171.513-76.787-171.513-171.513c0-94.719 76.786-171.514 171.513-171.514zM469.233 570.021l130.738 132.328 31.39-29.219-162.715-164.878-79.366 79.375 30.305 30.305 49.649-47.911zM573.769 350.302l-0.375-199.713 68.959-32.207-45.845 138.686 39.406 14.398 62.903-189.845-28.42-26.526-126.941 64.038-12.887 17.809 0.384 213.335 42.817 0.024z" />
<glyph unicode="&#xe628;" glyph-name="arrow-up" d="M511.431 930.537l-0.827 0.82-350.189-350.678 63.551-63.468 287.515 287.912 287.465-287.863 63.559 63.468-350.198 350.678-0.876-0.869zM466.872 596.247v-632.096h91.211v632.096h-91.211z" />
<glyph unicode="&#xe629;" glyph-name="arrow-down" d="M511.431-34.981l-0.827-0.82-350.189 350.678 63.551 63.468 287.515-287.912 287.465 287.863 63.559-63.468-350.198-350.678-0.876 0.869zM466.872 299.31v632.096h91.211v-632.096h-91.211z" />
<glyph unicode="&#xe62a;" glyph-name="arrow-left" d="M28.701 447.749l-0.82-0.827 350.678-350.189 63.468 63.551-287.912 287.515 287.863 287.465-63.468 63.559-350.678-350.198 0.869-0.876zM362.991 403.19h632.096v91.211h-632.096v-91.211z" />
<glyph unicode="&#xe62b;" glyph-name="arrow-right" d="M994.219 447.749l0.819-0.827-350.678-350.189-63.468 63.551 287.912 287.515-287.863 287.465 63.468 63.559 350.678-350.198-0.869-0.876zM659.929 403.19h-632.096v91.211h632.096v-91.211z" />
<glyph unicode="&#xe62c;" glyph-name="share-box" d="M37.337-27.644v951.651h951.643v-951.651h-951.643zM831.069 765.421h-475.059v-160.696h204.785l-339.621-341.022 112.347-110.46 337.42 336.572 0.395-200.022h159.732v475.627z" />
<glyph unicode="&#xe62d;" glyph-name="share-mobile" d="M748.307 525.32v0.245h-64.549v-0.245h-173.435v406.749h406.748v-406.749h-168.764zM849.578 864.281h-203.049v-68.681h87.53l-145.159-145.758 48.019-47.209 144.215 143.853 0.168-85.491h68.277v203.286zM748.307-41.164v-0.322l-470.632 0.322v661.982h64.55v-604.724h341.533v509.226h64.549v-566.484zM542.34 78.081h-57.309v76.9h57.309v-76.9zM275.027 758.609h235.27v-70.114h-235.27v70.114z" />
<glyph unicode="&#xe62e;" glyph-name="share-people" d="M964.744 441.437l-9.205-3.199h-43.351l-6.465-45.492-31.613-145.796-20.259 4.608 31.488 143.53 7.655 52.506 10.254 11.038h45.975l30.306 55.539 18.419-9.337-33.205-63.394zM903.251 471.842c-18.577 0-33.679 14.87-33.679 33.146 0 18.268 15.103 33.138 33.679 33.138 18.568 0 33.671-14.87 33.671-33.138 0-18.276-15.103-33.146-33.671-33.146zM903.251 517.733c-7.147 0-12.954-5.718-12.954-12.745s5.805-12.745 12.954-12.745c7.139 0 12.954 5.718 12.954 12.745s-5.815 12.745-12.954 12.745zM827.886 530.012h-60.286l-9.704-102.771-41.993-179.168-20.177 4.928 41.826 176.893 10.287 108.943 10.33 11.563h62.935l41.56 91.941 18.985-9.907-44.276-98.638-9.489-3.788zM758.171 566.166c-22.867 0-41.451 18.294-41.451 40.785 0 22.5 18.585 40.793 41.451 40.793 22.858 0 41.451-18.294 41.451-40.793 0-22.492-18.593-40.785-41.451-40.785zM758.171 627.343c-11.429 0-20.726-9.147-20.726-20.392s9.297-20.392 20.726-20.392c11.421 0 20.726 9.147 20.726 20.392s-9.305 20.392-20.726 20.392zM727.474 530.012h-39.019l-9.497 4.369-44.276 98.056 18.984 9.326 41.568-91.366h32.238v-20.392zM614.381 471.841c-18.568 0-33.671 14.87-33.671 33.146 0 18.268 15.103 33.138 33.671 33.138 18.577 0 33.679-14.87 33.679-33.138 0-18.276-15.103-33.146-33.679-33.146zM614.381 517.732c-7.139 0-12.954-5.718-12.954-12.745s5.815-12.745 12.954-12.745c7.147 0 12.954 5.718 12.954 12.745s-5.806 12.745-12.954 12.745zM582.394 438.237h-21.117l-8.997 3.398-41.451 69.641 17.993 11.278 38.469-63.927h15.103v-20.392zM484.155 444.384l-79.487-79.379-14.387 14.403 65.259 65.169-65.251 65.159 14.387 14.411 79.487-79.379-0.192-0.2 0.184-0.184zM408.199 434.468h-143.281v20.675h143.281v-20.675zM170.945 494.879h-19.676v-0.075h-52.864v123.988h123.988v-123.988h-51.448v0.075zM181.007 536.164h20.809v61.97h-61.894v-20.934h26.682l-44.251-44.434 14.636-14.395 43.959 43.851 0.058-26.057zM170.945 322.134v-0.1l-143.456 0.1v201.784h19.676v-184.332h104.103v155.218h19.676v-172.67zM108.168 358.478h-17.477v23.442h17.477v-23.442zM26.681 565.919h71.715v-21.375h-71.715v21.375zM603.869 350.298l-18.135-104.461-20.417 3.429 18.135 104.461 20.417-3.429zM660.623 458.633l28.281 46.95 18.060-10.029-31.264-54.455-9.030-2.859h-40.285l6.022-42.526 31.371-144.447-20.259-4.029-31.496 143.522-7.89 53.863 10.246 14.003h46.241zM820.139 252.109l-20.318-4.008-31.089 152.894 20.318 4.008 31.089-152.894zM828.029 505.666l28.923-47.033h15.594v-20.392h-21.592l-8.971 3.359-31.905 52.706 17.952 11.363zM952.316 249.26l-20.417-3.429-18.135 104.461 20.418 3.429 18.135-104.461z" />
<glyph unicode="&#xe62f;" glyph-name="checked-box" d="M480.328 275.417l-238.193 236.589 57.549 60.541 188.355-185.364 451.438 456.674 57.184-56.477-516.334-511.963zM104.356 74.778h761.416v384.473h79.239v-468.1h-915.973v911.254h644.672v-74.527h-569.354v-753.097z" />
<glyph unicode="&#xe630;" glyph-name="check" d="M333.228 80.431l-306.051 304 73.947 77.792 242.011-238.174 580.065 586.783 73.482-72.569-663.454-657.832z" />
<glyph unicode="&#xe631;" glyph-name="star" d="M811.818-5.308l-300.297 214.205-300.28-214.205 114.801 346.406-300.297 214.205h371.1l114.676 346.406 114.692-346.406h371.092l-300.28-214.205 114.792-346.406z" />
<glyph unicode="&#xe632;" glyph-name="express" d="M773.793 924.461c7.884-0.742 15.756-1.483 23.631-2.219 0-0.245 0-0.49 0-0.733 0.985 0 1.968 0 2.959 0 0-0.253 0-0.497 0-0.742 1.727-0.245 3.453-0.497 5.179-0.742 0-0.245 0-0.49 0-0.742 0.739 0 1.472 0 2.21 0 0-0.245 0-0.49 0-0.733 1.485-0.253 2.948-0.497 4.431-0.742 0-0.245 0-0.497 0-0.742 0.488 0 0.985 0 1.485 0 0-0.245 0-0.497 0-0.742 0.733 0 1.472 0 2.21 0 0-0.245 0-0.49 0-0.742 1.473-0.49 2.948-0.985 4.431-1.475 0-0.245 0-0.497 0-0.742 0.488 0 0.985 0 1.472 0 0-0.245 0-0.49 0-0.742 0.497 0 0.985 0 1.485 0 0-0.245 0-0.49 0-0.733 0.488 0 0.985 0 1.473 0 0-0.253 0-0.497 0-0.742 0.497 0 0.985 0 1.485 0 0-0.253 0-0.497 0-0.742 0.488 0 0.985 0 1.472 0 0.253-0.497 0.497-0.985 0.739-1.483 0.497 0 0.985 0 1.485 0 0.245-0.49 0.488-0.985 0.739-1.475 0.488 0 0.985 0 1.472 0 0-0.245 0-0.497 0-0.742 0.739-0.245 1.485-0.49 2.21-0.742 0.253-0.49 0.497-0.985 0.739-1.475 0.497 0 0.985 0 1.485 0 0.245-0.497 0.488-0.985 0.739-1.483 0.733-0.245 1.472-0.49 2.21-0.742 1.232-1.475 2.464-2.958 3.695-4.421 0.488 0 0.985 0 1.473 0 1.485-1.727 2.958-3.455 4.431-5.179 0.739-0.49 1.485-0.985 2.21-1.475 0-0.497 0-0.985 0-1.483 1.243-0.985 2.464-1.968 3.695-2.958 0-0.497 0-0.985 0-1.483 0.985-0.733 1.968-1.475 2.958-2.213 0-0.497 0-0.985 0-1.483 0.488-0.245 0.985-0.49 1.472-0.733 0.245-0.742 0.497-1.483 0.739-2.219 0.245 0 0.488 0 0.739 0 0-0.49 0-0.985 0-1.475 0.488-0.253 0.985-0.497 1.472-0.742 0.245-0.985 0.497-1.968 0.739-2.946 0.497-0.245 0.985-0.497 1.485-0.742 0.488-1.483 0.985-2.958 1.472-4.431 0.245 0 0.497 0 0.739 0 0-0.49 0-0.985 0-1.475 0.245 0 0.488 0 0.739 0 0.488-1.483 0.985-2.946 1.472-4.431 0.253 0 0.497 0 0.739 0 0-0.742 0-1.483 0-2.213 0.245 0 0.497 0 0.739 0 0-0.497 0-0.985 0-1.483 0.245 0 0.488 0 0.739 0 0-0.742 0-1.475 0-2.213 5.814-14.619 8.853-40.084 2.948-57.599-0.497-2.464-0.985-4.927-1.485-7.39-0.245 0-0.488 0-0.739 0-0.488-2.213-0.985-4.431-1.472-6.643-0.245 0-0.497 0-0.739 0-0.245-0.985-0.488-1.968-0.739-2.958-0.245 0-0.488 0-0.739 0 0-0.742 0-1.483 0-2.219-0.245 0-0.488 0-0.733 0-0.253-0.985-0.497-1.968-0.739-2.958-0.245 0-0.497 0-0.739 0 0-0.49 0-0.985 0-1.475-0.488-0.253-0.985-0.497-1.473-0.742-0.497-1.483-0.985-2.958-1.485-4.431-0.245 0-0.497 0-0.739 0-0.245-0.742-0.488-1.475-0.739-2.213-0.488-0.245-0.985-0.497-1.472-0.742 0-0.49 0-0.985 0-1.483-0.497-0.245-0.985-0.49-1.485-0.733 0-0.497 0-0.985 0-1.483-0.733-0.49-1.472-0.985-2.21-1.475 0-0.497 0-0.985 0-1.483-0.985-0.742-1.968-1.483-2.948-2.213 0-0.497 0-0.985 0-1.483-2.464-2.213-4.916-4.431-7.39-6.643-1.232-1.483-2.464-2.958-3.695-4.431-0.488 0-0.985 0-1.485 0-0.985-1.23-1.968-2.453-2.959-3.695-0.488 0-0.985 0-1.472 0-0.245-0.49-0.497-0.985-0.739-1.475-0.488 0-0.985 0-1.485 0-0.488-0.742-0.985-1.483-1.472-2.213-0.497 0-0.985 0-1.485 0-0.243-0.497-0.488-0.995-0.733-1.483-0.985-0.245-1.979-0.497-2.959-0.742-0.245-0.49-0.488-0.985-0.733-1.475-1.485-0.497-2.959-0.985-4.431-1.483 0-0.245 0-0.49 0-0.742-0.497 0-0.985 0-1.485 0 0-0.245 0-0.49 0-0.742-1.472-0.49-2.959-0.985-4.421-1.475 0-0.245 0-0.497 0-0.742-0.739 0-1.485 0-2.219 0 0-0.245 0-0.49 0-0.742-0.488 0-0.985 0-1.472 0 0-0.245 0-0.49 0-0.733-0.739 0-1.485 0-2.219 0 0-0.253 0-0.497 0-0.742-0.488 0-0.985 0-1.473 0 0-0.245 0-0.497 0-0.742-1.727-0.245-3.453-0.497-5.179-0.742 0-0.245 0-0.49 0-0.742-0.733 0-1.472 0-2.21 0 0-0.245 0-0.49 0-0.733-0.985 0-1.968 0-2.948 0 0-0.253 0-0.497 0-0.742-1.232 0-2.464 0-3.695 0 0-0.245 0-0.497 0-0.742-3.695-0.245-7.39-0.49-11.080-0.742 0-0.245 0-0.49 0-0.733-3.624-1.021-13.671 0.009-16.245 0.733-3.695 0.253-7.39 0.497-11.080 0.742 0 0.245 0 0.497 0 0.742-2.21 0.245-4.421 0.49-6.643 0.742 0 0.245 0 0.49 0 0.733-1.473 0.253-2.959 0.497-4.431 0.742 0 0.245 0 0.497 0 0.742-2.21 0.49-4.421 0.985-6.643 1.483 0 0.245 0 0.49 0 0.733-1.232 0.253-2.453 0.497-3.684 0.742 0 0.245 0 0.497 0 0.742-0.995 0.243-1.979 0.49-2.958 0.742 0 0.245 0 0.49 0 0.733-0.488 0-0.985 0-1.472 0 0 0.253 0 0.497 0 0.742-0.497 0-0.985 0-1.485 0 0 0.253 0 0.497 0 0.742-0.488 0-0.985 0-1.472 0 0 0.245 0 0.497 0 0.742-0.497 0-0.985 0-1.485 0-0.245 0.49-0.488 0.985-0.739 1.475-0.985 0.253-1.968 0.497-2.948 0.742-0.245 0.497-0.488 0.985-0.739 1.483-0.488 0-0.985 0-1.473 0 0 0.245 0 0.49 0 0.742-0.739 0.245-1.485 0.49-2.21 0.733-0.253 0.497-0.497 0.985-0.739 1.483-0.497 0-0.985 0-1.485 0-0.488 0.742-0.985 1.475-1.472 2.213-0.497 0-0.985 0-1.485 0-0.739 0.985-1.485 1.968-2.21 2.958-0.497 0-0.985 0-1.485 0-2.21 2.464-4.431 4.927-6.643 7.39-1.232 0.985-2.464 1.968-3.695 2.946 0 0.497 0 0.985 0 1.483-0.985 0.742-1.968 1.475-2.958 2.213 0 0.497 0 0.985 0 1.483-0.739 0.49-1.485 0.985-2.21 1.475-0.253 0.742-0.497 1.483-0.739 2.219-0.497 0.245-0.985 0.49-1.485 0.733 0 0.497 0 0.995 0 1.483-0.488 0.245-0.985 0.497-1.473 0.742-0.245 0.985-0.497 1.968-0.739 2.946-0.497 0.245-0.985 0.49-1.485 0.742-0.488 1.475-0.985 2.958-1.472 4.421-0.245 0-0.497 0-0.739 0 0 0.497 0 0.985 0 1.483-0.245 0-0.488 0-0.739 0 0 0.497 0 0.985 0 1.483-0.245 0-0.488 0-0.739 0-0.488 1.475-0.985 2.958-1.472 4.421-0.245 0-0.497 0-0.739 0-1.472 4.431-2.959 8.863-4.431 13.292 0 0.985 0 1.968 0 2.958-2.413 7.258-4.866 23.832-2.21 33.23 0 1.968 0 3.937 0 5.905 0.245 0 0.497 0 0.739 0 0.245 2.464 0.488 4.916 0.739 7.39 0.245 0 0.488 0 0.733 0 0 0.985 0 1.968 0 2.946 0.253 0 0.497 0 0.739 0 0 0.742 0 1.483 0 2.213 0.245 0 0.497 0 0.739 0 0 0.742 0 1.483 0 2.219 0.245 0 0.497 0 0.739 0 0 0.733 0 1.475 0 2.213 0.245 0 0.488 0 0.739 0 0.245 1.483 0.488 2.946 0.733 4.431 0.253 0 0.497 0 0.739 0 0.245 0.985 0.497 1.968 0.739 2.958 0.245 0 0.488 0 0.739 0 0 0.742 0 1.475 0 2.213 0.245 0 0.488 0 0.733 0 0.253 0.985 0.497 1.968 0.739 2.946 0.253 0 0.497 0 0.739 0 0.245 0.985 0.497 1.968 0.739 2.958 0.488 0.253 0.985 0.497 1.472 0.742 0.497 1.483 0.985 2.946 1.485 4.431 0.245 0 0.497 0 0.739 0 0.245 0.742 0.488 1.483 0.739 2.213 0.488 0.253 0.985 0.497 1.472 0.742 0 0.497 0 0.985 0 1.483 0.739 0.49 1.485 0.985 2.21 1.475 0 0.497 0 0.985 0 1.483 0.739 0.49 1.485 0.985 2.219 1.475 0 0.497 0 0.985 0 1.483 1.727 1.475 3.442 2.946 5.169 4.431 0 0.49 0 0.985 0 1.475 0.985 0.742 1.968 1.483 2.948 2.219 0.253 0.49 0.497 0.985 0.739 1.475 0.497 0 0.985 0 1.485 0 1.472 1.727 2.958 3.455 4.421 5.179 8.459 6.067 18.027 11.904 28.065 16.245 0.739 0 1.485 0 2.219 0 0 0.245 0 0.49 0 0.742 0.733 0 1.473 0 2.21 0 0 0.245 0 0.49 0 0.733 0.739 0 1.472 0 2.21 0 0 0.253 0 0.497 0 0.742 0.739 0 1.485 0 2.219 0 0 0.245 0 0.497 0 0.742 0.985 0 1.968 0 2.958 0 0 0.245 0 0.49 0 0.742 0.985 0 1.968 0 2.959 0 0 0.245 0 0.49 0 0.733 1.472 0 2.958 0 4.431 0 0 0.253 0 0.497 0 0.742 1.473 0 2.959 0 4.421 0 0 0.253 0 0.497 0 0.742 3.26 0.922 8.187-1.141 10.339 0.742zM767.887 873.506c-1.677-1.456-4.321-0.642-6.643-1.483 0-0.245 0-0.49 0-0.742-0.739 0-1.485 0-2.21 0 0-0.245 0-0.49 0-0.733-0.497 0-0.985 0-1.485 0 0-0.253 0-0.497 0-0.742-0.739 0-1.485 0-2.21 0 0-0.245 0-0.497 0-0.742-0.985-0.245-1.968-0.49-2.948-0.742 0-0.245 0-0.49 0-0.733-0.985-0.253-1.979-0.497-2.959-0.742-0.245-0.497-0.488-0.985-0.733-1.483-0.497 0-0.985 0-1.485 0-0.488-0.742-0.982-1.475-1.485-2.213-0.488 0-0.985 0-1.472 0-0.739-0.985-1.485-1.968-2.21-2.958-2.219-1.968-4.431-3.937-6.643-5.915 0-0.49 0-0.985 0-1.475-0.497-0.245-0.992-0.497-1.485-0.742 0-0.49 0-0.985 0-1.475-0.497-0.255-0.985-0.497-1.485-0.742-0.245-0.985-0.488-1.968-0.733-2.958-0.497-0.253-0.985-0.497-1.485-0.742-0.245-1.23-0.488-2.464-0.739-3.695-0.245 0-0.488 0-0.739 0 0-0.497 0-0.985 0-1.483-0.245 0-0.488 0-0.733 0 0-0.733 0-1.475 0-2.213-0.253 0-0.497 0-0.739 0 0-0.742 0-1.483 0-2.213-0.245 0-0.497 0-0.739 0 0-1.243 0-2.464 0-3.695-0.245 0-0.488 0-0.739 0 0-1.483 0-2.958 0-4.431-0.245 0-0.488 0-0.733 0-1.343-4.725 1.039-18.441 2.21-21.419 0.245 0 0.488 0 0.739 0 0.245-1.475 0.488-2.958 0.733-4.421 0.253 0 0.497 0 0.739 0 0-0.497 0-0.985 0-1.483 0.253 0 0.497 0 0.739 0 0.497-1.475 0.985-2.946 1.485-4.431 0.488-0.245 0.985-0.49 1.472-0.733 0-0.497 0-0.985 0-1.483 0.497-0.245 0.985-0.497 1.485-0.742 0-0.49 0-0.985 0-1.475 0.739-0.497 1.472-0.985 2.21-1.483 0-0.49 0-0.985 0-1.475 1.485-1.243 2.959-2.464 4.431-3.695 0.488-0.742 0.985-1.483 1.472-2.219 0.497 0 0.985 0 1.485 0 0.488-0.733 0.985-1.475 1.472-2.213 0.497 0 0.992 0 1.485 0 0.245-0.497 0.497-0.985 0.739-1.483 0.488 0 0.985 0 1.473 0 0.253-0.49 0.497-0.985 0.739-1.475 2.219-0.742 4.431-1.483 6.643-2.219 0-0.245 0-0.49 0-0.733 0.497 0 0.985 0 1.485 0 0-0.253 0-0.497 0-0.742 0.739 0 1.472 0 2.21 0 3.119-1.23 14.655-4.461 19.938-2.958 0 0.245 0 0.49 0 0.742 1.727 0 3.453 0 5.179 0 13.747 4.089 22.858 8.723 30.277 19.198 0.739 0.49 1.472 0.985 2.21 1.475 0 0.497 0 0.995 0 1.483 0.497 0.245 0.985 0.497 1.485 0.742 0 0.49 0 0.985 0 1.475 0.245 0 0.488 0 0.739 0 0 0.497 0 0.985 0 1.483 0.245 0 0.488 0 0.733 0 0 0.49 0 0.985 0 1.483 0.253 0 0.497 0 0.739 0 0 0.49 0 0.985 0 1.475 0.245 0 0.497 0 0.739 0 0.245 0.985 0.488 1.968 0.739 2.958 0.245 0 0.488 0 0.733 0 0 0.742 0 1.483 0 2.219 0.253 0 0.497 0 0.739 0 0 0.733 0 1.475 0 2.213 0.253 0 0.497 0 0.739 0 0 0.985 0 1.968 0 2.958 0.245 0 0.497 0 0.739 0 0 1.483 0 2.946 0 4.431 0.245 0 0.488 0 0.739 0 1.434 5.078-0.976 19.728-2.219 22.891-0.245 0-0.488 0-0.739 0-0.245 1.483-0.488 2.958-0.733 4.431-0.253 0-0.497 0-0.739 0-0.245 0.985-0.497 1.968-0.739 2.958-0.245 0-0.488 0-0.739 0-0.245 0.985-0.488 1.968-0.733 2.958-0.497 0.245-0.985 0.49-1.485 0.742 0 0.49 0 0.985 0 1.475-0.497 0.253-0.985 0.497-1.485 0.742 0 0.497 0 0.985 0 1.483-1.232 0.985-2.453 1.968-3.684 2.946-5.885 8.106-15.244 12.906-25.853 16.245-5.017 1.583-13.721 0.784-19.938 0.742zM74.459 805.567c109.776 0 219.584 0 329.359 0 0-17.229 0-34.466 0-51.695-109.776 0-219.584 0-329.359 0 0 17.229 0 34.466 0 51.695zM518.278-42.207c-4.452 0.109-8.359 1.775-11.812 2.953-5.905 1.228-11.819 2.465-17.725 3.693 0 0.244 0 0.488 0 0.74-6.401 1.472-12.804 2.953-19.198 4.425 56.364 224.724 112.745 449.516 169.109 674.231-42.088 0-84.192 0-126.28 0 0-0.245 0-0.49 0-0.742-0.244 0-0.488 0-0.74 0-0.74-3.202-1.473-6.39-2.211-9.6-0.244 0-0.496 0-0.74 0-0.488-2.453-0.984-4.916-1.473-7.39-0.253 0-0.496 0-0.74 0 0-0.985 0-1.968 0-2.958-0.244 0-0.496 0-0.74 0 0-0.733 0-1.475 0-2.213-0.244 0-0.496 0-0.74 0 0-0.742 0-1.483 0-2.213-0.244 0-0.488 0-0.74 0 0-0.985 0-1.968 0-2.958-0.244 0-0.488 0-0.732 0 0-0.742 0-1.483 0-2.219-0.253 0-0.496 0-0.74 0 0-0.742 0-1.475 0-2.213-0.244 0-0.496 0-0.74 0-0.488-2.465-0.984-4.916-1.473-7.39-0.253 0-0.496 0-0.74 0-0.496-2.464-0.984-4.916-1.484-7.39-0.244 0-0.488 0-0.74 0-0.488-2.453-0.984-4.916-1.473-7.39-0.244 0-0.496 0-0.74 0 0-0.985 0-1.968 0-2.948-0.244 0-0.488 0-0.74 0 0-0.739 0-1.472 0-2.21-0.244 0-0.488 0-0.74 0 0-0.739 0-1.485 0-2.21-0.244 0-0.488 0-0.732 0 0-0.992 0-1.979 0-2.958-5.684-15.544-9.863-33.176-15.513-48.732 0-0.985 0-1.968 0-2.958-0.244 0-0.488 0-0.74 0 0-0.739 0-1.485 0-2.219-0.244 0-0.488 0-0.732 0 0-0.739 0-1.472 0-2.21-0.253 0-0.496 0-0.74 0-0.496-2.464-0.984-4.916-1.484-7.39-0.244 0-0.488 0-0.732 0 0-0.985 0-1.968 0-2.958-3.907-10.735-7.188-23.235-11.080-33.97 0-0.985 0-1.968 0-2.948-0.244 0-0.496 0-0.74 0 0-0.739 0-1.485 0-2.219-0.244 0-0.496 0-0.74 0 0-0.733 0-1.473 0-2.21-0.244 0-0.488 0-0.74 0 0-0.985 0-1.968 0-2.948-0.244 0-0.488 0-0.732 0 0-0.739 0-1.485 0-2.21-0.253 0-0.496 0-0.74 0 0-0.739 0-1.485 0-2.219-0.244 0-0.496 0-0.74 0-0.488-2.453-0.984-4.916-1.473-7.39-0.253 0-0.496 0-0.74 0-0.496-2.453-0.984-4.916-1.484-7.379-0.244 0-0.488 0-0.74 0 0-0.985 0-1.979 0-2.959-0.622-1.737-1.747-3.665-2.211-5.905 22.403 0 44.805 0 67.199 0 0-16.732 0-33.482 0-50.215-33.717 0-67.452 0-101.168 0-0.496 0.935-1.151 1.003-1.484 1.472 0 0.497 0 0.992 0 1.485-0.732 0.497-1.473 0.985-2.211 1.485 0 0.488 0 0.985 0 1.473-0.74 0.497-1.473 0.985-2.211 1.485 0 0.488 0 0.985 0 1.472-0.74 0.497-1.484 0.985-2.22 1.485 0 0.488 0 0.985 0 1.473-0.732 0.497-1.473 0.985-2.211 1.485 0 0.497 0 0.985 0 1.485-0.74 0.488-1.484 0.985-2.211 1.472 0 0.497 0 0.985 0 1.485-0.74 0.488-1.484 0.985-2.22 1.472 0 0.497 0 0.985 0 1.485-0.485 0.245-0.981 0.488-1.473 0.739 0 0.488 0 0.985 0 1.472-0.74 0.497-1.484 0.985-2.22 1.485 0 0.488 0 0.985 0 1.472-0.732 0.497-1.473 0.985-2.211 1.485 0 0.488 0 0.985 0 1.472-0.488 0.253-0.984 0.497-1.473 0.739-1.161 1.403-1.312 2.676-1.484 5.179 0.244 0 0.496 0 0.74 0 0.488 2.453 0.984 4.916 1.473 7.39 0.253 0 0.496 0 0.74 0 0 0.733 0 1.472 0 2.21 0.244 0 0.496 0 0.74 0 0 0.985 0 1.968 0 2.948 0.244 0 0.488 0 0.74 0 0 0.739 0 1.485 0 2.21 0.244 0 0.488 0 0.732 0 0 0.739 0 1.485 0 2.219 0.253 0 0.496 0 0.74 0 0 0.985 0 1.968 0 2.948 3.918 10.726 7.188 23.235 11.080 33.97 0 0.985 0 1.968 0 2.948 0.244 0 0.496 0 0.74 0 0 0.739 0 1.485 0 2.21 0.244 0 0.488 0 0.74 0 0 0.739 0 1.485 0 2.219 0.244 0 0.488 0 0.732 0 0 0.985 0 1.968 0 2.958 0.253 0 0.496 0 0.74 0 0 0.739 0 1.472 0 2.21 0.244 0 0.496 0 0.74 0 0 0.739 0 1.485 0 2.219 0.244 0 0.488 0 0.74 0 0.488 2.453 0.984 4.926 1.473 7.379 0.253 0 0.496 0 0.74 0 0.496 2.464 0.984 4.926 1.484 7.39 0.244 0 0.488 0 0.732 0 0.496 2.464 0.984 4.916 1.484 7.39 0.244 0 0.488 0 0.74 0 0 0.985 0 1.968 0 2.958 0.244 0 0.488 0 0.74 0 0 0.739 0 1.485 0 2.219 0.244 0 0.488 0 0.732 0 0 0.733 0 1.472 0 2.21 0.253 0 0.496 0 0.74 0 0 0.985 0 1.968 0 2.948 8.561 23.497 14.386 49.643 22.891 73.113 0 0.985 0 1.968 0 2.946 0.253 0 0.496 0 0.74 0 0 0.733 0 1.475 0 2.213 0.244 0 0.496 0 0.74 0 0 0.742 0 1.483 0 2.213 0.244 0 0.488 0 0.74 0 0.488 2.464 0.984 4.927 1.473 7.39 0.253 0 0.496 0 0.74 0 0.496 2.464 0.984 4.927 1.484 7.39 0.244 0 0.488 0 0.732 0 0 0.985 0 1.968 0 2.958 0.253 0 0.496 0 0.74 0 0 0.742 0 1.483 0 2.213 0.244 0 0.496 0 0.74 0 0 0.742 0 1.483 0 2.219 0.244 0 0.488 0 0.74 0 0 0.985 0 1.968 0 2.958 0.244 0 0.488 0 0.74 0 0 0.742 0 1.483 0 2.213 0.244 0 0.488 0 0.732 0 0 0.742 0 1.483 0 2.219 0.253 0 0.496 0 0.74 0 0.496 2.453 0.984 4.916 1.484 7.379 0.244 0 0.488 0 0.732 0 0.496 2.464 0.993 4.927 1.484 7.39 0.244 0 0.496 0 0.74 0 0.488 2.465 0.984 4.927 1.473 7.39 0.253 0 0.496 0 0.74 0 0 0.985 0 1.968 0 2.946 0.244 0 0.496 0 0.74 0 0.488 2.464 0.984 4.927 1.473 7.39 0.253 0 0.496 0 0.74 0 0 0.742 0 1.483 0 2.213 0.253 0 0.496 0 0.74 0 0 0.742 0 1.483 0 2.219 0.244 0 0.496 0 0.74 0 0 0.985 0 1.968 0 2.958 0.244 0 0.488 0 0.74 0 1.545 2.011 3.119 2.251 5.168 3.695 0.496 0.742 0.984 1.475 1.484 2.213 0.488 0 0.984 0 1.473 0 0.496 0.742 0.984 1.483 1.484 2.219 0.488 0 0.984 0 1.473 0 0.496 0.733 0.984 1.475 1.484 2.213 0.488 0 0.984 0 1.484 0 0.488 0.742 0.984 1.475 1.473 2.213 0.496 0 0.984 0 1.484 0 0.488 0.742 0.984 1.483 1.473 2.219 0.496 0 0.984 0 1.484 0 0.488 0.733 0.984 1.475 1.473 2.213 0.496 0 0.984 0 1.484 0 0.244 0.49 0.488 0.985 0.74 1.483 13.535 0 27.079 0 40.616 0 45.781 0 91.57 0 137.351 0 0.739-1.243 1.485-2.464 2.219-3.695 0.488-0.253 0.985-0.497 1.473-0.742 0-0.497 0-0.985 0-1.483 0.739-0.49 1.485-0.985 2.219-1.475 0-0.497 0-0.985 0-1.483 0.985-0.742 1.968-1.475 2.958-2.213 0-0.497 0-0.985 0-1.483 0.739-0.49 1.472-0.985 2.21-1.475 0-0.497 0-0.985 0-1.483 0.985-0.742 1.968-1.475 2.959-2.213 0-0.497 0-0.985 0-1.483 0.985-0.742 1.968-1.475 2.948-2.213 0-0.497 0-0.985 0-1.483 0.739-0.49 1.485-0.985 2.219-1.475 0-0.497 0-0.985 0-1.483 0.488-0.245 0.985-0.49 1.473-0.742 0-0.245 0-0.49 0-0.733 0.497-0.253 0.985-0.497 1.485-0.742 0-0.497 0-0.985 0-1.483 0.245 0 0.488 0 0.739 0 1.031-1.312 1.16-1.475 1.472-3.695-1.485-1.716-0.648-3.513-1.472-5.906-0.253 0-0.497 0-0.739 0 0-0.985 0-1.968 0-2.958-0.245 0-0.497 0-0.739 0 0-0.742 0-1.483 0-2.213-0.245 0-0.488 0-0.739 0 0-0.985 0-1.979 0-2.958-0.245 0-0.488 0-0.733 0 0-0.985 0-1.968 0-2.958-3.17-9.227-4.976-20.299-8.126-29.535-0.497-2.958-0.985-5.906-1.485-8.853-2.191-6.38-3.725-14.302-5.905-20.677-0.245-1.968-0.488-3.948-0.739-5.915-1.523-4.452-2.907-10.314-4.421-14.764-0.253-1.968-0.497-3.937-0.739-5.915-5.38-15.69-7.985-33.877-13.291-49.474-0.985-4.916-1.968-9.853-2.958-14.772-0.253 0-0.497 0-0.739 0-2.205-9.834-4.426-19.685-6.637-29.527-42.584-168.848-85.177-337.747-127.762-506.594zM722.098 617.992c16.741 0 33.482 0 50.223 0 0-50.954 0-101.917 0-152.864 42.576 0 85.169 0 127.753 0 0 25.346 0 50.71 0 76.058 16.741 0 33.482 0 50.215 0 0-194.439 0-388.945 0-583.393-16.733 0-33.473 0-50.215 0 0 152.36 0 304.761 0 457.12-50.948 0-101.917 0-152.864 0-6.401 6.643-12.804 13.291-19.198 19.938-1.968 1.716-3.948 3.442-5.915 5.169 0 59.317 0 118.659 0 177.976zM74.459 603.961c92.546 0 185.118 0 277.664 0 0-17.472 0-34.954 0-52.436-92.546 0-185.118 0-277.664 0 0 17.482 0 34.962 0 52.436zM74.459 405.306c75.065 0 150.164 0 225.237 0 0-17.229 0-34.457 0-51.687-75.073 0-150.172 0-225.237 0 0 17.229 0 34.457 0 51.687zM848.378-42.207c-16.732 0-33.473 0-50.215 0 0 81.467 0 162.967 0 244.435-4.34 2.534-6.874 7.602-10.339 11.080-7.742 7.753-16.396 14.638-22.891 23.631-8.611 8.368-17.237 16.741-25.851 25.103 0 0.253 0 0.496 0 0.74-0.488 0.244-0.985 0.496-1.472 0.74 0 0.496 0 0.984 0 1.484-5.169 4.916-10.339 9.842-15.513 14.764-8.359 8.864-16.732 17.725-25.103 26.583-4.431 4.19-8.864 8.368-13.291 12.561-3.756 5.179-8.096 9.57-12.561 14.032-2.655 2.655-9.327 7.39-10.339 11.071 5.421 5.179 10.834 10.339 16.254 15.513 0.985 1.232 1.968 2.453 2.958 3.695 0.488 0 0.985 0 1.472 0 4.926 5.169 9.853 10.339 14.772 15.504 0.841-0.622 0.109 0.093 0.739-0.739 0.739-0.488 1.472-0.985 2.21-1.472 0-0.497 0-0.985 0-1.485 0.739-0.488 1.485-0.985 2.219-1.472 1.472-1.727 2.959-3.453 4.421-5.179 6.895-6.643 13.788-13.291 20.677-19.938 0-0.488 0-0.984 0-1.473 0.497-0.253 0.985-0.496 1.485-0.74 0.985-1.242 1.968-2.464 2.948-3.695 7.39-7.147 14.772-14.276 22.149-21.419 0-0.488 0-0.984 0-1.473 0.739-0.496 1.485-0.993 2.219-1.484 1.472-1.727 2.948-3.453 4.421-5.168 6.804-6.794 14.226-12.762 19.946-20.67 2.21-1.978 4.421-3.948 6.643-5.915 4.421-4.673 8.853-9.358 13.291-14.032 2.21-1.968 4.421-3.937 6.643-5.905 0-0.488 0-0.984 0-1.473 3.2-2.958 6.401-5.915 9.6-8.864 3.937-4.179 7.874-8.368 11.811-12.551 1.727-1.484 3.453-2.958 5.169-4.431 0-0.488 0-0.984 0-1.474 2.959-2.706 5.906-5.42 8.853-8.126 0.253-1.231 0.497-2.464 0.739-3.695 0.245 0 0.497 0 0.739 0 0.245-0.984 0.488-1.968 0.739-2.958 0.245 0 0.488 0 0.733 0 0-0.74 0-1.484 0-2.211 0.253 0 0.497 0 0.739 0 0-0.496 0-0.984 0-1.484 0.245 0 0.497 0 0.739 0 0-0.74 0-1.484 0-2.211 0.245 0 0.497 0 0.739 0 0-0.496 0-0.984 0-1.484 0.245 0 0.488 0 0.739 0 0-0.74 0-1.474 0-2.211 0.245 0 0.488 0 0.733 0 0-85.169 0-170.354 0-255.515zM74.459 205.922c57.592 0 115.21 0 172.802 0 0-17.472 0-34.954 0-52.436-57.592 0-115.21 0-172.802 0 0 17.482 0 34.962 0 52.436z" />
<glyph unicode="&#xe633;" glyph-name="devices" d="M783.324 577.357h220.632v-23.186h-220.632v23.186zM909.035 337.805v-23.928h-24.333v23.928h24.333zM806.805 292.335h175.397v240.664h22.984l-0.186-264.407-221.82 0.126v264.053h23.625v-240.437zM523.74 314.046v215.969h21.062v-197.285h111.42v197.285h21.062v-216.079l-153.543 0.11zM591.393 352.948v25.092h18.692v-25.092h-18.692zM522.88 574.971h153.931v-22.874h-153.931v22.874zM479.973 224.033h-450.234v8.794l-8.843 9.468 77.383 77.88 14.881-15.927-54.020-54.365h392.462l-54.020 54.365 14.873 15.927 77.392-77.88-9.875-10.573v-7.689zM326.565 279.233v24.198h26.516v-24.198h-26.516zM272.486 279.233v24.198h26.516v-24.198h-26.516zM218.407 279.233v24.198h26.516v-24.198h-26.516zM164.346 279.233v24.198h18.473v-24.198h-18.473zM96.988 533.404h22.765v-165.98h271.666v165.98h22.95l0.101-187.606h-317.356l-0.126 187.606zM96.785 577.382h317.668v-21.913h-317.668v21.913z" />
<glyph unicode="&#xe634;" glyph-name="money" d="M534.346 939.136c0.704 0 1.408 0 2.112 0 2.243-3.902 7.976-7.986 11.232-11.232 4.677-4.677 9.354-9.364 14.031-14.039 1.881-1.882 3.239-4.234 5.612-5.612 0-0.235 0-0.468 0-0.704-0.235 0-0.469 0-0.704 0-124.685-124.92-249.404-249.874-374.090-374.794-0.235 0-0.468 0-0.704 0 0 0.235 0 0.468 0 0.704-3.138 1.802-5.22 5.213-7.715 7.719-0.704 0.468-1.408 0.932-2.102 1.4-4.677 4.911-9.364 9.832-14.039 14.743-1.178 1.183-7.916 6.068-7.021 8.423 8.177 7.954 16.377 15.908 24.559 23.863 19.89 20.116 39.779 40.24 59.661 60.356 66.45 66.441 132.891 132.891 199.333 199.332 16.377 16.143 32.756 32.286 49.133 48.429 4.204 4.446 8.429 8.891 12.631 13.335 5.854 5.612 11.7 11.232 17.543 16.847 0.469 0.704 0.938 1.398 1.408 2.102 2.927 2.937 6.99 5.471 9.123 9.123zM597.518 877.371c3.4-1.981 5.713-5.703 8.429-8.429 4.677-4.446 9.354-8.891 14.039-13.335 1.167-1.408 2.333-2.806 3.5-4.214 13.335-13.101 26.679-26.201 40.006-39.302 5.381-5.612 10.762-11.232 16.143-16.847 6.558-6.317 13.11-12.631 19.655-18.95 0-0.235 0-0.468 0-0.696 2.454-2.455 7.443-5.532 8.429-9.123-7.714-7.485-15.439-14.978-23.159-22.463-2.454-2.447-5.522-7.435-9.133-8.423-27.601 27.844-55.218 55.688-82.819 83.523-6.789 6.789-13.57 13.57-20.359 20.359-1.066 1.068-6.508 4.647-5.612 7.011 2.575 2.342 5.16 4.677 7.725 7.021 7.714 7.946 15.439 15.909 23.159 23.863zM535.050 814.903c3.148-1.823 5.22-5.22 7.725-7.725 0.704-0.468 1.408-0.94 2.112-1.408 4.908-5.15 9.827-10.292 14.735-15.439 0.972-0.973 7.835-6.78 7.714-7.715-95.207-94.98-190.448-189.978-285.655-284.959-17.551-17.778-35.102-35.563-52.646-53.341-5.15-4.911-10.292-9.832-15.439-14.743-5.381-5.381-10.762-10.762-16.143-16.143-0.788-0.781-4.657-5.733-5.612-5.615-8.187 8.423-16.377 16.847-24.567 25.271-1.126 1.124-7.212 5.356-6.317 7.719 7.252 7.015 14.501 14.039 21.751 21.055 18.247 18.482 36.502 36.971 54.749 55.453 68.319 68.311 136.629 136.629 204.948 204.94 17.308 17.082 34.625 34.164 51.932 51.237 3.983 4.214 7.956 8.429 11.936 12.64 5.854 5.612 11.7 11.223 17.543 16.839 0.704 0.94 1.408 1.882 2.112 2.806 2.927 2.937 6.99 5.471 9.123 9.123zM597.518 752.435c27.835-27.601 55.688-55.218 83.524-82.819 6.316-6.085 12.631-12.17 18.951-18.247 0-0.235 0-0.468 0-0.704 2.474-2.473 7.161-4.971 7.714-9.128-7.483-7.25-14.978-14.5-22.462-21.75-2.575-2.582-5.582-7.845-9.827-8.424-27.375 27.601-54.749 55.21-82.115 82.819-6.789 6.781-13.57 13.57-20.359 20.351-0.997 1.006-6.809 5.339-6.316 7.024 2.806 2.573 5.612 5.147 8.429 7.719 7.483 7.719 14.978 15.439 22.463 23.159zM535.050 689.966c3.45-0.906 6.115-5.406 8.429-7.719 0.235 0 0.469 0 0.704 0 5.381-5.615 10.762-11.231 16.143-16.839 2.303-2.304 6.065-4.166 7.010-7.728-1.619-0.94-2.253-2.255-3.5-3.504-2.816-2.808-5.612-5.615-8.429-8.424-1.177-0.94-2.343-1.869-3.51-2.808-7.252-7.485-14.509-14.978-21.758-22.463-7.252-7.015-14.509-14.039-21.758-21.055-20.116-20.351-40.24-40.71-60.356-61.060-30.417-30.182-60.834-60.365-91.243-90.539-28.305-28.54-56.626-57.096-84.932-85.635-14.969-14.735-29.948-29.478-44.917-44.213-3.279-3.512-6.558-7.023-9.827-10.527-5.612-5.381-11.232-10.762-16.847-16.143 0-0.235 0-0.469 0-0.704-2.514-2.506-5.894-4.576-7.715-7.72-0.235 0-0.468 0-0.704 0 0 0.235 0 0.469 0 0.704-3.138 1.802-5.22 5.213-7.715 7.72-0.704 0.469-1.408 0.939-2.102 1.4-4.677 4.911-9.364 9.832-14.039 14.743-1.178 1.182-7.916 6.068-7.021 8.424 8.177 7.954 16.378 15.908 24.559 23.863 20.124 20.351 40.249 40.71 60.365 61.060 66.441 66.441 132.883 132.891 199.333 199.332 16.369 16.143 32.756 32.286 49.125 48.429 4.214 4.443 8.429 8.893 12.64 13.335 5.844 5.615 11.692 11.231 17.543 16.847 0.469 0.696 0.938 1.4 1.408 2.104 2.927 2.925 6.99 5.474 9.123 9.12zM597.518 627.506c3.47-0.94 6.095-5.398 8.429-7.719 0.235 0 0.469 0 0.704 0 5.612-5.851 11.223-11.701 16.839-17.551 5.612-5.381 11.232-10.762 16.847-16.143 14.735-14.97 29.478-29.948 44.222-44.917 0.696-0.468 1.398-0.94 2.102-1.408 4.677-4.911 9.354-9.824 14.039-14.735 2.303-2.314 6.055-4.166 7.010-7.719-7.725-7.485-15.439-14.978-23.159-22.463-2.454-2.455-5.522-7.443-9.133-8.423-27.375 27.609-54.749 55.218-82.115 82.819-6.789 6.789-13.57 13.57-20.359 20.359-0.997 0.998-6.809 5.331-6.316 7.015 2.806 2.573 5.612 5.147 8.429 7.719 7.483 7.719 14.978 15.447 22.463 23.167zM535.050 565.038c3.45-0.914 6.115-5.414 8.429-7.719 0.235 0 0.469 0 0.704 0 5.381-5.615 10.762-11.231 16.143-16.847 2.303-2.304 6.065-4.166 7.010-7.719-92.868-92.634-185.771-185.302-278.64-277.944-18.247-18.473-36.502-36.963-54.749-55.445-5.381-5.147-10.762-10.293-16.143-15.439-6.075-6.085-12.162-12.17-18.247-18.247-2.452-2.464-4.164-6.437-8.429-7.023-7.483 7.72-14.969 15.447-22.454 23.167-2.575 2.339-5.15 4.677-7.725 7.015-0.899 2.372 4.546 5.951 5.612 7.015 6.085 6.085 12.17 12.17 18.255 18.255 6.548 6.781 13.101 13.57 19.646 20.351 19.42 19.186 38.841 38.371 58.261 57.557 90.765 91 181.555 182.024 272.32 273.024zM597.518 502.569c3.47-0.94 6.095-5.389 8.429-7.719 0.235 0 0.469 0 0.704 0 5.612-5.851 11.223-11.701 16.839-17.543 5.612-5.381 11.232-10.762 16.847-16.143 14.735-14.978 29.478-29.948 44.222-44.926 0.696-0.461 1.398-0.932 2.102-1.4 4.677-4.911 9.354-9.832 14.039-14.743 2.303-2.304 6.055-4.157 7.010-7.719-7.714-7.485-15.439-14.97-23.159-22.454-2.454-2.455-5.522-7.443-9.133-8.423-27.375 27.601-54.749 55.21-82.115 82.819-6.789 6.781-13.57 13.57-20.359 20.351-0.997 1.006-6.809 5.339-6.316 7.024 2.806 2.573 5.612 5.147 8.429 7.719 7.483 7.719 14.978 15.439 22.463 23.159zM862.823 282.182c0-88.426 0-176.878 0-265.305-88.427 0-176.878 0-265.305 0 0 46.786 0 93.59 0 140.376-0.235 0-0.469 0-0.704 0-1.086-1.878-2.746-2.749-4.204-4.216-3.51-3.512-7.020-7.015-10.528-10.527-1.639-1.869-3.279-3.739-4.908-5.615-9.364-9.12-18.725-18.247-28.079-27.366-20.586-20.82-41.179-41.648-61.764-62.468-14.274-14.039-28.548-28.079-42.814-42.118-10.058-10.293-20.124-20.585-30.182-30.878-1.871-1.635-3.742-3.277-5.612-4.911-3.017-3.017-10.452-12.757-14.735-13.335-7.252 7.485-14.509 14.97-21.758 22.454-2.575 2.582-7.845 5.59-8.429 9.832 77.899 77.664 155.823 155.354 233.722 233.018 0 20.351 0 40.71 0 61.060 20.35 0 40.71 0 61.060 0 1.388 2.381 3.742 3.739 5.612 5.615 4.446 4.451 8.891 8.893 13.335 13.335 10.292 10.527 20.594 21.055 30.886 31.582 3.269 3.043 6.548 6.085 9.827 9.128 0 0.235 0 0.469 0 0.704 4.677 4.443 9.364 8.893 14.039 13.335 2.152 2.156 3.671 5.406 7.010 6.311 7.483-7.719 14.978-15.439 22.463-23.159 2.454-2.455 7.433-5.523 8.429-9.128-2.132-1.232-3.249-3.244-4.908-4.911-3.742-3.739-7.493-7.485-11.232-11.231-1.408-1.165-2.806-2.339-4.214-3.503-5.844-6.085-11.692-12.17-17.543-18.247-3.148-3.143-7.554-5.917-9.837-9.832 46.787 0 93.59 0 140.376 0zM425.56 326.404c10.996 0 21.994 0 32.99 0 1.981-3.403 5.703-5.708 8.429-8.424 5.15-5.381 10.292-10.762 15.439-16.143 0.469 0 0.93 0 1.398 0 0.235-0.469 0.469-0.938 0.704-1.408 0.938-0.696 1.871-1.4 2.806-2.104 8.419-8.65 16.847-17.308 25.271-25.966 0.461 0 0.93 0 1.398 0 1.408-1.635 2.806-3.277 4.214-4.911 3.742-3.512 7.483-7.023 11.223-10.527 4.898-4.895 9.022-9.907 14.743-14.039 0.235-0.469 0.469-0.938 0.704-1.408 2.333-2.104 4.677-4.207 7.010-6.311 0-0.235 0-0.469 0-0.704-0.235 0-0.469 0-0.704 0-2.575-2.808-5.15-5.615-7.725-8.424-0.469 0-0.939 0-1.398 0-1.408-1.635-2.806-3.277-4.214-4.911-1.398-1.174-2.806-2.339-4.204-3.512-0.235-0.469-0.469-0.93-0.704-1.4-0.469 0-0.939 0-1.398 0-1.881-2.103-3.742-4.215-5.612-6.319-1.75-1.743-4.305-2.741-5.612-4.911-0.796 0.595-0.101-0.092-0.704 0.704-3.4 1.969-5.703 5.7-8.429 8.424-0.235 0-0.469 0-0.704 0-5.602 5.842-11.232 11.692-16.839 17.543-3.048 2.808-6.085 5.615-9.123 8.424-8.66 8.893-17.317 17.777-25.967 26.67-3.742 3.747-7.493 7.485-11.232 11.231-1.67 1.668-3.681 2.783-4.908 4.911-0.235 0-0.469 0-0.704 0 0-0.235 0-0.469 0-0.704-7.483-7.25-14.978-14.5-22.463-21.759-2.445-2.447-5.512-7.435-9.122-8.424-1.439 2.422-2.184 2.037-4.214 3.512-3.048 3.277-6.075 6.555-9.122 9.832-0.47 0-0.939 0-1.409 0-2.806 3.034-5.612 6.077-8.429 9.12-0.462 0-0.931 0-1.399 0-1.871 2.104-3.742 4.216-5.612 6.319-0.235 0-0.47 0-0.703 0 0 0.469 0 0.93 0 1.4 2.415 1.391 3.641 3.83 5.612 5.615 0.703 0.235 1.409 0.469 2.102 0.704 0.703 0.938 1.409 1.869 2.112 2.808 1.871 1.635 3.742 3.277 5.612 4.911 1.871 2.104 3.742 4.207 5.612 6.319 4.415 3.193 8.147 6.739 11.936 10.527 1.178 1.4 2.343 2.808 3.51 4.207 0.462 0 0.931 0 1.399 0 2.806 3.043 5.612 6.085 8.429 9.128zM802.466 230.249c-1.68-2.892-4.727-4.727-7.020-7.023-4.677-4.911-9.354-9.824-14.039-14.735-0.226 0-0.461 0-0.696 0-11.936-12.17-23.863-24.332-35.798-36.502-4.204-3.973-8.419-7.954-12.631-11.927 0-0.235 0-0.469 0-0.704-5.612-5.381-11.232-10.762-16.847-16.143-2.313-2.313-4.154-6.052-7.725-7.015-0.938 1.617-2.253 2.255-3.51 3.503-2.806 2.816-5.612 5.615-8.419 8.424-1.398 1.642-2.806 3.277-4.204 4.911-7.010 6.79-14.039 13.571-21.054 20.36-3.983 4.207-7.956 8.424-11.936 12.631-0.469 0-0.93 0-1.398 0-7.252-7.485-14.509-14.97-21.758-22.463-2.474-2.472-6.699-4.644-7.725-8.416 19.882-19.655 39.771-39.31 59.661-58.956 4.908-4.92 9.827-9.832 14.735-14.743 2.152-2.154 3.671-5.406 7.020-6.319 30.652 30.878 61.303 61.773 91.947 92.651 7.021 6.781 14.039 13.57 21.054 20.351 0.704 0.938 1.408 1.878 2.112 2.808 2.435 2.431 8.187 6.395 9.123 9.832-7.483 7.25-14.97 14.5-22.454 21.75-2.474 2.472-4.657 6.697-8.429 7.728zM254.306 159.357c36.729-36.494 73.466-72.996 110.194-109.49-10.528-10.762-21.063-21.524-31.582-32.286-36.729 36.494-73.474 72.996-110.194 109.49 10.519 10.762 21.054 21.524 31.582 32.286z" />
<glyph unicode="&#xe635;" glyph-name="info-circle" d="M848.763 784.23c-186.118 186.004-487.9 186.004-674.027 0-186.11-185.996-186.11-487.884 0-674.011 186.127-186.127 488.023-185.996 674.027 0 186.118 186.004 186.118 488.015 0 674.011zM504.1 841.461c50.297 0 91.233-40.937 91.233-91.356 0-50.779-40.936-92.091-91.233-92.091-50.779 0-92.213 41.312-92.213 92.091 0 51.269 40.455 91.356 92.213 91.356zM650.736 170.235c0-19.203-9.239-28.546-28.423-28.546h-235.452c-19.194 0-28.546 9.345-28.546 28.546v60.008c0 19.203 9.356 28.432 28.546 28.432h43.493v253.315h-44.466c-19.186 0-28.433 9.36-28.433 28.546v60.008c0 19.203 9.249 28.432 28.433 28.432h164.376c19.194 0 28.433-9.229 28.433-28.432v-341.869h43.616c19.186 0 28.423-9.229 28.423-28.432v-60.008z" />
<glyph unicode="&#xe900;" glyph-name="plane" d="M920.528 346.422h-255.551v51.046h255.551c28.286 0 51.37 22.759 51.37 51.046s-23.084 51.046-51.37 51.046h-255.551v51.046h255.551c56.572 0 102.416-45.843 102.416-102.090s-45.843-102.090-102.416-102.090zM194.191 499.557l-109.893 109.568 36.089 36.415 94.938-94.938h296.192v-51.046h-317.326zM215.324 346.422l-94.938-94.612-36.089 36.089 109.893 109.568h317.326v-51.046h-296.192zM50.159 262.539l-49.094 14.306 49.094 171.668-49.094 171.668 49.094 14.306 53.321-185.974-53.321-185.974zM670.829 585.717l-222.713 271.482h-94.612l154.111-241.571-43.243-27.635-179.146 280.911 21.784 39.341h153.461l19.833-9.427 229.866-280.914-39.341-32.188zM670.829 311.308l39.341-32.188-229.866-280.911-19.833-9.427h-153.461l-21.784 39.341 179.146 280.911 43.243-27.636-154.111-241.571h94.612l222.713 271.482z" />
<glyph unicode="&#xe901;" glyph-name="marathon" d="M841.822 480.030c0 0-149.247 149.305-151.625 149.305-2.37 0-223.581-219.429-223.581-219.429l224.177-154.866-136.651-264.982-47.326 25.946 114.865 221.211-235.787 164.835 267.866 264.51-124.925 121.759-224.094-54.437-10.814 50.517 251.077 62.649 297.185-291.467 127.245 123.060 34.183-39.86-161.793-158.752zM404.174 326.060l-152.089-132.491-223.39-52.87-8.908 52.282 204.372 43.365 139.029 130.113 40.987-40.399zM811.624 686.681c-58.655 0-106.346 47.575-106.346 106.031 0 58.464 47.691 106.039 106.346 106.039 58.646 0 106.337-47.575 106.337-106.039 0-58.456-47.691-106.031-106.337-106.031zM811.624 845.731c-29.319 0-53.169-23.783-53.169-53.020s23.85-53.011 53.169-53.011c29.311 0 53.169 23.775 53.169 53.011s-23.858 53.020-53.169 53.020z" />
</font>
</defs>
</svg>
